<svg width="536" height="438" fill="none" xmlns="http://www.w3.org/2000/svg"><path d="M156 113a3 3 0 0 1 3-3h290a3 3 0 0 1 3 3v209a3 3 0 0 1-3 3H159a3 3 0 0 1-3-3V113z" fill="#DCECFF" stroke="#2665C2" stroke-width="2"/><mask id="a" fill="#fff"><path fill-rule="evenodd" clip-rule="evenodd" d="M269 67a6 6 0 0 0-6 6v38h9V78a2 2 0 0 1 2-2h63a2 2 0 0 1 2 2v33h9V73a6 6 0 0 0-6-6h-73z"/></mask><path fill-rule="evenodd" clip-rule="evenodd" d="M269 67a6 6 0 0 0-6 6v38h9V78a2 2 0 0 1 2-2h63a2 2 0 0 1 2 2v33h9V73a6 6 0 0 0-6-6h-73z" fill="#fff"/><path d="M263 111h-2v2h2v-2zm9 0v2h2v-2h-2zm67 0h-2v2h2v-2zm9 0v2h2v-2h-2zm-83-38a4 4 0 0 1 4-4v-4a8 8 0 0 0-8 8h4zm0 38V73h-4v38h4zm7-2h-9v4h9v-4zm2 2V78h-4v33h4zm0-33v-4a4 4 0 0 0-4 4h4zm0 0h63v-4h-63v4zm63 0h4a4 4 0 0 0-4-4v4zm0 0v33h4V78h-4zm11 31h-9v4h9v-4zm-2-36v38h4V73h-4zm-4-4a4 4 0 0 1 4 4h4a8 8 0 0 0-8-8v4zm-73 0h73v-4h-73v4z" fill="#2665C2" mask="url(#a)"/><path d="M330 104a1 1 0 0 1 1-1h23a1 1 0 0 1 1 1v6h-25v-6zM256 104a1 1 0 0 1 1-1h23a1 1 0 0 1 1 1v6h-25v-6z" fill="#fff" stroke="#2665C2" stroke-width="2"/><path d="M157.073 113.658A3 3 0 0 1 160 110h289.035a3 3 0 0 1 2.932 3.638l-24.171 111a3.001 3.001 0 0 1-2.932 2.362h-239.9a3 3 0 0 1-2.927-2.342l-24.964-111z" fill="#fff" stroke="#2665C2" stroke-width="2"/><rect x="380" y="218" width="13" height="22" rx="1" fill="#fff" stroke="#2665C2" stroke-width="2"/><rect x="215" y="218" width="13" height="22" rx="1" fill="#fff" stroke="#2665C2" stroke-width="2"/><path d="M420 306a7 7 0 0 1 7-7h34a7 7 0 0 1 7 7v3.75a9 9 0 0 0 9 9h4a7 7 0 0 1 7 7V369a7 7 0 0 1-7 7h-54a7 7 0 0 1-7-7v-63z" fill="#fff" stroke="#2665C2" stroke-width="2"/><path d="M431 338h11M431 362h11M431 344h17M451 344h8M431 356h17M451 356h8M431 350h11M445 350h20" stroke="#2665C2" stroke-width="2"/><path d="M467 302l18 18" stroke="#2665C2" stroke-width="2" stroke-linecap="round"/><path d="M119 75a7 7 0 0 1 7-7h34a7 7 0 0 1 7 7v3.75a9 9 0 0 0 9 9h4a7 7 0 0 1 7 7V138a7 7 0 0 1-7 7h-54a7 7 0 0 1-7-7V75z" fill="#fff" stroke="#2665C2" stroke-width="2"/><path d="M130 107h11M130 131h11M130 113h17M150 113h8M130 125h17M150 125h8M130 119h11M144 119h20" stroke="#2665C2" stroke-width="2"/><path d="M166 71l18 18" stroke="#2665C2" stroke-width="2" stroke-linecap="round"/><path d="M403 40a7 7 0 0 1 7-7h25.241a5 5 0 0 1 5 5v5.5a5 5 0 0 0 5 5h5.696a5 5 0 0 1 5 5V86a7 7 0 0 1-7 7H410a7 7 0 0 1-7-7V40z" fill="#fff" stroke="#DD435F" stroke-width="2"/><path d="M438.959 34.53l15.184 15.184" stroke="#DD435F" stroke-width="2" stroke-linecap="round"/><path stroke="#DD435F" stroke-width="2" d="M412 64h35v20h-35z"/><path stroke="#DD435F" stroke-width="2" d="M412 64h8v20h-8z"/><path stroke="#DD435F" stroke-width="2" d="M412 64h35v5h-35zM412 69h35v5h-35zM412 74h35v5h-35z"/><path d="M199 121h45M252 121h17" stroke="#2665C2" stroke-width="2"/><path d="M341 344h45M394 344h17M485 188.769V152" stroke="#96C1EB" stroke-width="2"/><circle cx="485.5" cy="140.5" r="4.5" stroke="#96C1EB" stroke-width="2"/><path d="M110 396.769V360" stroke="#96C1EB" stroke-width="2"/><circle cx="110.5" cy="348.5" r="4.5" stroke="#96C1EB" stroke-width="2"/><path d="M238 172a7 7 0 0 1 7-7h68a7 7 0 0 1 7 7v68a7 7 0 0 1-7 7h-68a7 7 0 0 1-7-7v-68z" fill="#fff" stroke="#DD435F" stroke-width="2"/><path stroke="#DD435F" stroke-width="2" d="M263 190h10v10h-10zM285 212h10v10h-10zM285 190h10v10h-10zM273 195h12M279 195v20a2 2 0 0 0 2 2h4"/><path d="M153.98 384.572c.671-18.123 13.745-33.391 31.548-36.844l33.145-6.428a3.005 3.005 0 0 1 1.142 0l33.145 6.428c17.803 3.453 30.877 18.721 31.548 36.844l.905 24.429c.566 15.293-11.678 27.999-26.982 27.999h-78.375c-15.303 0-27.548-12.706-26.981-27.999l.905-24.429z" fill="#fff" stroke="#DD435F" stroke-width="2"/><path d="M214.116 421.25v-29.009M191.236 353.583l9.468 19.724 18.934-10.727 18.935 10.727 9.467-19.724" stroke="#DD435F" stroke-width="2"/><path d="M213.327 365.417l5.917 4.734 5.917-4.734" stroke="#DD435F" stroke-width="2"/><path d="M219.244 370.151l-11.046 7.889v35.897M219.244 370.151l11.045 7.889v50.098" stroke="#DD435F" stroke-width="2" stroke-linecap="round" stroke-linejoin="round"/><mask id="b" fill="#fff"><path d="M188.04 316.589C185.554 297.735 200.227 281 219.244 281c19.017 0 33.69 16.735 31.204 35.589l-2.002 15.18a29.456 29.456 0 0 1-58.405 0l-2.001-15.18z"/></mask><path d="M188.04 316.589C185.554 297.735 200.227 281 219.244 281c19.017 0 33.69 16.735 31.204 35.589l-2.002 15.18a29.456 29.456 0 0 1-58.405 0l-2.001-15.18z" fill="#fff"/><path d="M190.041 331.769l1.983-.262-1.983.262zm58.405 0l1.983.261-1.983-.261zm2.002-15.18l-1.983-.262 1.983.262zm-62.408 0l-1.983.261 1.983-.261zm60.425-.262l-2.002 15.18 3.966.523 2.002-15.18-3.966-.523zm-56.441 15.18l-2.001-15.18-3.966.523 2.002 15.18 3.965-.523zm32.449 23.363c-3.454.67-7.005.67-10.459 0l-.762 3.927a31.45 31.45 0 0 0 11.983 0l-.762-3.927zm-36.414-22.84a31.455 31.455 0 0 0 25.193 26.767l.762-3.927a27.456 27.456 0 0 1-21.99-23.363l-3.965.523zm58.404-.523a27.456 27.456 0 0 1-21.99 23.363l.762 3.927a31.457 31.457 0 0 0 25.194-26.767l-3.966-.523zM219.244 283c17.808 0 31.549 15.672 29.221 33.327l3.966.523c2.644-20.051-12.962-37.85-33.187-37.85v4zm0-4c-20.226 0-35.831 17.799-33.187 37.85l3.966-.523C187.694 298.672 201.435 283 219.244 283v-4z" fill="#DD435F" mask="url(#b)"/><path d="M39 219a7 7 0 0 1 7-7h46.025a7 7 0 0 1 7 7v8.5a9 9 0 0 0 9 9h8.81a7 7 0 0 1 7 7V301a7 7 0 0 1-7 7H46a7 7 0 0 1-7-7v-82z" fill="#fff" stroke="#2665C2" stroke-width="2"/><path d="M98 215l24 24" stroke="#2665C2" stroke-width="2" stroke-linecap="round"/><path stroke="#2665C2" stroke-width="2" d="M54 261h56v32H54z"/><path stroke="#2665C2" stroke-width="2" d="M54 261h15v32H54zM69 261h14v32H69zM83 261h14v32H83z"/><path stroke="#2665C2" stroke-width="2" d="M54 261h56v8H54zM54 269h56v8H54zM54 277h56v8H54z"/><path d="M311.368 304l17.272 10v20l-17.272 10-17.273-10v-20l17.273-10z" fill="#fff" stroke="#292931" stroke-width="2" stroke-linejoin="round"/><path d="M294 314l17.398 10v19.451M328.64 314.454L311.368 324" stroke="#292931" stroke-width="2" stroke-linejoin="round"/><path d="M48 416.5L81 397v39l-33-19.5zM412 394.5L379 375v39l33-19.5z" fill="#2665C2"/><path d="M170 19.5L137 0v39l33-19.5zM508 91.5L489 80v23l19-11.5z" fill="#DD435F"/><path d="M359 38.5l16-9.5v19l-16-9.5z" fill="#2665C2"/><path stroke="#22BF9A" stroke-width="2" d="M209 43h20v6h-20zM209 49h20v13h-20zM214 46v-7M224 46v-7"/><path d="M67.521 354.122L58 359.315V340h20v19.315l-9.521-5.193-.479-.261-.479.261zM490.521 241.122L481 246.315V227h20v19.315l-9.521-5.193-.479-.261-.479.261z" stroke="#F08729" stroke-width="2"/><path stroke="#22BF9A" stroke-width="2" d="M515 144h20v6h-20zM515 150h20v13h-20zM520 147v-7M530 147v-7"/><circle cx="5.5" cy="143.5" r="4.5" stroke="#96C1EB" stroke-width="2"/><circle cx="452.5" cy="430.5" r="4.5" stroke="#96C1EB" stroke-width="2"/></svg>