<svg width="528" height="476" fill="none" xmlns="http://www.w3.org/2000/svg"><path d="M445.723 16L527 63.055v94.109l-81.277 47.055-81.276-47.055v-94.11L445.723 16z" fill="#DCECFF" stroke="#2665C2" stroke-width="2" stroke-linejoin="round"/><path d="M364 63.055l81.867 47.055v91.524M527 65.193l-81.277 44.916" stroke="#2665C2" stroke-width="2" stroke-linejoin="round"/><path d="M162.5 60.5H236a6 6 0 0 1 6 6v62M290 81h-20a6 6 0 0 0-6 6v42M338 443h-20a6 6 0 0 1-6-6v-54M225 424h20a6 6 0 0 0 6-6v-35M16 228v20a6 6 0 0 0 6 6h35" stroke="#2665C2" stroke-width="2"/><path d="M65 129h352a7 7 0 0 1 7 7v240a7 7 0 0 1-7 7H65a7 7 0 0 1-7-7V136a7 7 0 0 1 7-7z" fill="#fff" stroke="#2665C2" stroke-width="2"/><circle cx="460.5" cy="270.5" r="4.5" stroke="#96C1EB" stroke-width="2"/><circle cx="189.5" cy="99.5" r="4.5" stroke="#96C1EB" stroke-width="2"/><circle cx="86.5" cy="447.5" r="4.5" stroke="#96C1EB" stroke-width="2"/><path d="M57.34 325l37.137 21.5v43L57.341 411l-37.137-21.5v-43L57.341 325z" fill="#fff" stroke="#DD435F" stroke-width="2" stroke-linejoin="round"/><path d="M20 346.5L57.406 368v41.819M94.477 347.477L57.341 368" stroke="#DD435F" stroke-width="2" stroke-linejoin="round"/><path d="M355.368 424l17.272 10v20l-17.272 10-17.273-10v-20l17.273-10z" fill="#fff" stroke="#DD435F" stroke-width="2" stroke-linejoin="round"/><path d="M338 434l17.398 10v19.451M372.64 434.454L355.368 444" stroke="#DD435F" stroke-width="2" stroke-linejoin="round"/><path d="M144.368 42l17.272 10v20l-17.272 10-17.273-10V52l17.273-10z" fill="#fff" stroke="#22BF9A" stroke-width="2" stroke-linejoin="round"/><path d="M127 52l17.398 10v19.45M161.64 52.454L144.368 62" stroke="#22BF9A" stroke-width="2" stroke-linejoin="round"/><rect x="133" y="294" width="50" height="30" rx="3" stroke="#292931" stroke-width="2"/><path d="M272 248h35M332 263v32M241 189v27M158 293v-41a4 4 0 0 1 4-4h46M124 248h26M292 339v-23a4 4 0 0 1 4-4h19M372 339v-23a4 4 0 0 0-4-4h-19" stroke="#2665C2" stroke-width="2"/><rect x="240.941" y="215.414" width="46" height="46" rx="3" transform="rotate(45 240.941 215.414)" stroke="#DD435F" stroke-width="2"/><rect x="332.029" y="294.414" width="24.912" height="24.912" rx="3" transform="rotate(45 332.029 294.414)" stroke="#DD435F" stroke-width="2"/><rect x="158.015" y="235.414" width="17.82" height="17.82" rx="3" transform="rotate(45 158.015 235.414)" fill="#fff" stroke="#DD435F" stroke-width="2"/><rect x="307" y="234" width="50" height="30" rx="3" stroke="#2665C2" stroke-width="2"/><rect x="75" y="233" width="50" height="30" rx="3" stroke="#2665C2" stroke-width="2"/><rect x="278" y="338" width="28" height="19" rx="3" stroke="#292931" stroke-width="2"/><rect x="359" y="338" width="28" height="19" rx="3" stroke="#2665C2" stroke-width="2"/><rect x="226" y="158" width="30" height="30" rx="15" stroke="#2665C2" stroke-width="2"/><rect x="1" y="197" width="30" height="30" rx="15" stroke="#2665C2" stroke-width="2"/><path d="M99 163h21M76 175h32" stroke="#7BD2AF" stroke-width="2"/><path d="M76 163h19M76 157h18" stroke="#2665C2" stroke-width="2"/><path d="M127 157h22" stroke="#F08729" stroke-width="2"/><path d="M96 157h29M76 169h18" stroke="#2665C2" stroke-width="2"/><path d="M127 169h22" stroke="#F08729" stroke-width="2"/><path d="M96 169h29" stroke="#2665C2" stroke-width="2"/><path d="M330 193h21M307 205h32" stroke="#7BD2AF" stroke-width="2"/><path d="M307 193h19M307 187h18M307 199h18" stroke="#2665C2" stroke-width="2"/><path d="M358 199h22" stroke="#F08729" stroke-width="2"/><path d="M327 199h29" stroke="#2665C2" stroke-width="2"/><path d="M193 354h21M170 366h32" stroke="#7BD2AF" stroke-width="2"/><path d="M170 354h19M170 348h18M170 360h18" stroke="#2665C2" stroke-width="2"/><path d="M221 360h22" stroke="#F08729" stroke-width="2"/><path d="M190 360h29" stroke="#2665C2" stroke-width="2"/><rect x="27" y="110" width="51" height="35" rx="5" fill="#fff" stroke="#2665C2" stroke-width="2"/><path d="M30 119h45M30 127h45M30 135h45M39 118v24M48 118v24M57 118v24M66 118v24" stroke="#2665C2" stroke-width="2"/><rect x="173" y="406" width="51" height="35" rx="5" fill="#fff" stroke="#2665C2" stroke-width="2"/><path d="M176 415h45M176 423h45M176 431h45M185 414v24M194 414v24M203 414v24M212 414v24" stroke="#2665C2" stroke-width="2"/><rect x="291" y="64" width="51" height="35" rx="5" fill="#fff" stroke="#2665C2" stroke-width="2"/><path d="M294 73h45M294 81h45M294 89h45M303 72v24M312 72v24M321 72v24M330 72v24" stroke="#2665C2" stroke-width="2"/><rect x="155" y="186" width="31.671" height="15.093" rx="5" fill="#fff" stroke="#2665C2" stroke-width="2"/><rect x="165.8" y="194.953" width="31.671" height="15.093" rx="5" fill="#fff" stroke="#22BF9A" stroke-width="2"/><rect x="175.329" y="203.907" width="31.671" height="15.093" rx="5" fill="#fff" stroke="#F08729" stroke-width="2"/><path d="M515 275.5L496 264v23l19-11.5z" fill="#DD435F"/><path d="M251 19.5L284 0v39l-33-19.5zM69 73.5L85 64v19l-16-9.5z" fill="#2665C2"/><path d="M291 456.5L258 437v39l33-19.5zM26 311.5L7 300v23l19-11.5z" fill="#DD435F"/><path d="M125 439.5l16-9.5v19l-16-9.5z" fill="#2665C2"/><path d="M436.531 346.757L466 363.817v34.122L436.531 415l-29.469-17.061v-34.122l29.469-17.06z" fill="#DCECFF" stroke="#2665C2" stroke-width="2" stroke-linejoin="round"/><path d="M406.9 363.818l29.683 17.06v33.185M466 364.593l-29.469 16.285" stroke="#2665C2" stroke-width="2" stroke-linejoin="round"/></svg>