<svg width="496" height="466" fill="none" xmlns="http://www.w3.org/2000/svg"><mask id="a" fill="#fff"><path fill-rule="evenodd" clip-rule="evenodd" d="M98.543 35.522a6 6 0 0 1-6.606 2.736l-36.1-9.047c-1.785-.447-3.681-.057-5.112 1.1A137.325 137.325 0 0 0 30.31 50.725c-1.157 1.43-1.547 3.327-1.1 5.112l9.047 36.1a6 6 0 0 1-2.736 6.606L3.59 117.677c-1.58.946-2.645 2.565-2.838 4.396A138.06 138.06 0 0 0 0 136.5c0 4.873.255 9.686.753 14.427.193 1.831 1.258 3.45 2.838 4.396l31.93 19.134a6.001 6.001 0 0 1 2.736 6.606l-9.046 36.1c-.447 1.785-.057 3.681 1.1 5.112a137.302 137.302 0 0 0 20.414 20.414c1.43 1.157 3.327 1.547 5.112 1.1l36.1-9.046a6 6 0 0 1 6.606 2.735l19.134 31.931c.946 1.58 2.565 2.645 4.396 2.838 4.741.498 9.554.753 14.427.753 4.873 0 9.686-.255 14.427-.753 1.831-.193 3.45-1.258 4.396-2.838l19.134-31.931a6 6 0 0 1 6.606-2.735l36.1 9.046c1.785.447 3.681.057 5.112-1.1a137.279 137.279 0 0 0 20.414-20.414c1.157-1.431 1.547-3.327 1.1-5.112l-9.046-36.1a6 6 0 0 1 2.735-6.606l31.931-19.134c1.58-.946 2.645-2.565 2.838-4.396.498-4.741.753-9.554.753-14.427 0-4.873-.255-9.686-.753-14.427-.193-1.831-1.258-3.45-2.838-4.396l-31.931-19.134a6 6 0 0 1-2.735-6.606l9.046-36.1c.447-1.785.057-3.681-1.1-5.112a137.302 137.302 0 0 0-20.414-20.414c-1.431-1.157-3.327-1.547-5.112-1.1l-36.1 9.047a6.001 6.001 0 0 1-6.606-2.736L155.323 3.59c-.946-1.58-2.565-2.645-4.396-2.838A138.06 138.06 0 0 0 136.5 0c-4.873 0-9.686.255-14.427.753-1.831.193-3.45 1.258-4.396 2.838L98.543 35.52zM136.5 205.185c37.934 0 68.685-30.751 68.685-68.685 0-37.933-30.751-68.685-68.685-68.685-37.933 0-68.685 30.752-68.685 68.685 0 37.934 30.752 68.685 68.685 68.685z"/></mask><path fill-rule="evenodd" clip-rule="evenodd" d="M98.543 35.522a6 6 0 0 1-6.606 2.736l-36.1-9.047c-1.785-.447-3.681-.057-5.112 1.1A137.325 137.325 0 0 0 30.31 50.725c-1.157 1.43-1.547 3.327-1.1 5.112l9.047 36.1a6 6 0 0 1-2.736 6.606L3.59 117.677c-1.58.946-2.645 2.565-2.838 4.396A138.06 138.06 0 0 0 0 136.5c0 4.873.255 9.686.753 14.427.193 1.831 1.258 3.45 2.838 4.396l31.93 19.134a6.001 6.001 0 0 1 2.736 6.606l-9.046 36.1c-.447 1.785-.057 3.681 1.1 5.112a137.302 137.302 0 0 0 20.414 20.414c1.43 1.157 3.327 1.547 5.112 1.1l36.1-9.046a6 6 0 0 1 6.606 2.735l19.134 31.931c.946 1.58 2.565 2.645 4.396 2.838 4.741.498 9.554.753 14.427.753 4.873 0 9.686-.255 14.427-.753 1.831-.193 3.45-1.258 4.396-2.838l19.134-31.931a6 6 0 0 1 6.606-2.735l36.1 9.046c1.785.447 3.681.057 5.112-1.1a137.279 137.279 0 0 0 20.414-20.414c1.157-1.431 1.547-3.327 1.1-5.112l-9.046-36.1a6 6 0 0 1 2.735-6.606l31.931-19.134c1.58-.946 2.645-2.565 2.838-4.396.498-4.741.753-9.554.753-14.427 0-4.873-.255-9.686-.753-14.427-.193-1.831-1.258-3.45-2.838-4.396l-31.931-19.134a6 6 0 0 1-2.735-6.606l9.046-36.1c.447-1.785.057-3.681-1.1-5.112a137.302 137.302 0 0 0-20.414-20.414c-1.431-1.157-3.327-1.547-5.112-1.1l-36.1 9.047a6.001 6.001 0 0 1-6.606-2.736L155.323 3.59c-.946-1.58-2.565-2.645-4.396-2.838A138.06 138.06 0 0 0 136.5 0c-4.873 0-9.686.255-14.427.753-1.831.193-3.45 1.258-4.396 2.838L98.543 35.52zM136.5 205.185c37.934 0 68.685-30.751 68.685-68.685 0-37.933-30.751-68.685-68.685-68.685-37.933 0-68.685 30.752-68.685 68.685 0 37.934 30.752 68.685 68.685 68.685z" fill="#DCECFF"/><path d="M117.677 3.59l1.715 1.029-1.715-1.028zm126.112 52.247l1.94.486-1.94-.486zm-1.1-5.112l1.555-1.258-1.555 1.258zm-7.946 41.212l1.94.487-1.94-.487zm37.504 30.136l1.989-.209-1.989.209zm-2.838-4.396l1.028-1.716-1.028 1.716zm0 37.646l-1.028-1.715 1.028 1.715zm2.838-4.396l-1.989-.209 1.989.209zm-37.504 30.136l1.94-.487-1.94.487zm7.946 41.212l-1.555-1.257 1.555 1.257zm1.1-5.112l1.94-.486-1.94.486zm-26.626 26.626l-.486 1.94.486-1.94zm5.112-1.1l1.258 1.555-1.258-1.555zm-41.212-7.946l-.487 1.94.487-1.94zm-30.136 37.504l.209 1.989-.209-1.989zm4.396-2.838l-1.715-1.028 1.715 1.028zm-63.386-34.666l.487 1.94-.487-1.94zm6.606 2.735l-1.716 1.028 1.716-1.028zm-42.706 6.311l.486 1.94-.486-1.94zm-26.626-26.626l-1.94-.486 1.94.486zm1.1 5.112l1.555-1.257-1.555 1.257zm5.21-47.818l-1.028 1.716 1.029-1.716zm2.736 6.606l-1.94-.487 1.94.487zm-34.666-25.74l-1.028 1.716 1.028-1.716zm0-37.646l1.028 1.715-1.028-1.715zm34.667-25.74l-1.94.487 1.94-.487zm-2.736 6.606l-1.029-1.716 1.029 1.716zM155.322 3.59l1.716-1.028-1.716 1.028zM150.927.753l-.209 1.99.209-1.99zM30.311 50.725l-1.555-1.258 1.555 1.258zm-1.1 5.112l1.94-.486-1.94.486zm145.246-20.316l1.716-1.028-1.716 1.029zm-82.52 2.736l.487-1.94-.487 1.94zm6.606-2.735l-1.716-1.029 1.716 1.029zm19.134 233.887l-1.716 1.028 1.716-1.028zm4.396 2.838l-.209 1.989.209-1.989zM222.275 30.311l-1.257 1.555 1.257-1.555zm-5.112-1.1l-.486-1.94.486 1.94zm-161.326 0l.486-1.94-.486 1.94zm-.486 1.94l36.1 9.046.973-3.88-36.1-9.046-.973 3.88zM31.866 51.983a135.325 135.325 0 0 1 20.117-20.117l-2.516-3.11a139.315 139.315 0 0 0-20.711 20.711l3.11 2.516zm8.331 39.468l-9.046-36.1-3.88.972 9.047 36.1 3.88-.972zM4.62 119.392l31.93-19.134-2.056-3.431-31.93 19.134 2.056 3.431zM2 136.5c0-4.803.252-9.546.742-14.218l-3.978-.418C-1.74 126.674-2 131.557-2 136.5h4zm.742 14.218C2.252 146.046 2 141.303 2 136.5h-4c0 4.943.259 9.826.764 14.636l3.978-.418zm33.808 22.024L4.619 153.608l-2.056 3.431 31.93 19.134 2.057-3.431zm-5.4 44.907l9.047-36.1-3.88-.973-9.046 36.101 3.88.972zm20.833 23.485a135.302 135.302 0 0 1-20.117-20.116l-3.11 2.515a139.294 139.294 0 0 0 20.711 20.711l2.516-3.11zm39.468-8.331l-36.1 9.046.972 3.88 36.1-9.046-.972-3.88zm27.941 35.578l-19.134-31.931-3.431 2.056 19.134 31.931 3.431-2.056zM136.5 271c-4.803 0-9.546-.252-14.218-.742l-.418 3.978c4.81.505 9.693.764 14.636.764v-4zm14.218-.742c-4.672.49-9.415.742-14.218.742v4c4.943 0 9.826-.259 14.636-.764l-.418-3.978zm22.024-33.808l-19.134 31.931 3.431 2.056 19.134-31.93-3.431-2.057zm44.907 5.399l-36.1-9.046-.973 3.88 36.101 9.046.972-3.88zm23.485-20.831a135.28 135.28 0 0 1-20.116 20.116l2.515 3.11a139.264 139.264 0 0 0 20.711-20.711l-3.11-2.515zm-8.331-39.469l9.046 36.1 3.88-.972-9.046-36.101-3.88.973zm35.578-27.941l-31.931 19.134 2.057 3.431 31.93-19.134-2.056-3.431zM271 136.5c0 4.803-.252 9.546-.742 14.218l3.978.418c.505-4.81.764-9.693.764-14.636h-4zm-.742-14.218c.49 4.672.742 9.415.742 14.218h4c0-4.943-.259-9.826-.764-14.636l-3.978.418zm-33.808-22.024l31.931 19.134 2.056-3.431-31.93-19.134-2.057 3.431zm5.399-44.907l-9.046 36.1 3.88.973 9.046-36.1-3.88-.973zm-20.831-23.485a135.302 135.302 0 0 1 20.116 20.117l3.11-2.516a139.294 139.294 0 0 0-20.711-20.711l-2.515 3.11zm-39.469 8.331l36.1-9.046-.972-3.88-36.101 9.047.973 3.88zM153.608 4.62l19.134 31.93 3.431-2.056-19.134-31.93-3.431 2.056zM136.5 2c4.803 0 9.546.252 14.218.742l.418-3.978C146.326-1.74 141.443-2 136.5-2v4zm-14.218.742C126.954 2.252 131.697 2 136.5 2v-4c-4.943 0-9.826.259-14.636.764l.418 3.978zM100.258 36.55l19.134-31.931-3.431-2.056-19.134 31.93 3.431 2.057zm102.927 99.95c0 36.829-29.856 66.685-66.685 66.685v4c39.038 0 70.685-31.647 70.685-70.685h-4zM136.5 69.815c36.829 0 66.685 29.856 66.685 66.685h4c0-39.038-31.647-70.685-70.685-70.685v4zM69.815 136.5c0-36.829 29.856-66.685 66.685-66.685v-4c-39.038 0-70.685 31.647-70.685 70.685h4zm66.685 66.685c-36.829 0-66.685-29.856-66.685-66.685h-4c0 39.038 31.647 70.685 70.685 70.685v-4zM121.864-1.235c-2.48.26-4.645 1.699-5.903 3.798l3.431 2.056c.635-1.06 1.707-1.752 2.89-1.877l-.418-3.978zm123.865 57.558c.595-2.371.082-4.919-1.485-6.856l-3.11 2.516c.748.924 1.015 2.17.715 3.368l3.88.972zm-7.222 40.504a3.998 3.998 0 0 1-1.824-4.403l-3.88-.973a8 8 0 0 0 3.647 8.807l2.057-3.431zm35.729 25.037c-.261-2.48-1.7-4.645-3.799-5.903l-2.056 3.431c1.06.635 1.752 1.707 1.877 2.89l3.978-.418zm-3.799 35.175c2.099-1.258 3.538-3.423 3.799-5.903l-3.978-.418c-.125 1.183-.817 2.255-1.877 2.89l2.056 3.431zm-33.754 23.537a3.998 3.998 0 0 1 1.824-4.403l-2.057-3.431a7.999 7.999 0 0 0-3.647 8.807l3.88-.973zm7.561 42.957c1.567-1.937 2.08-4.485 1.485-6.856l-3.88.972c.3 1.198.033 2.444-.715 3.369l3.11 2.515zm-27.567 22.196c2.371.595 4.919.082 6.856-1.485l-2.515-3.11c-.925.748-2.171 1.015-3.369.715l-.972 3.88zm-40.504-7.222a3.998 3.998 0 0 1 4.403-1.824l.973-3.88a7.999 7.999 0 0 0-8.807 3.647l3.431 2.057zm-25.037 35.729c2.48-.261 4.645-1.7 5.903-3.799l-3.431-2.056c-.635 1.06-1.707 1.752-2.89 1.877l.418 3.978zm-58.712-37.553a4 4 0 0 1 4.403 1.823l3.431-2.056a8 8 0 0 0-8.807-3.647l.973 3.88zm-42.957 7.561c1.937 1.567 4.485 2.08 6.856 1.485l-.972-3.88c-1.198.3-2.444.033-3.368-.715l-2.516 3.11zm-22.196-27.567c-.595 2.371-.082 4.919 1.485 6.856l3.11-2.515c-.748-.925-1.015-2.171-.715-3.369l-3.88-.972zm7.222-40.504a4 4 0 0 1 1.825 4.403l3.88.973a8 8 0 0 0-3.648-8.807l-2.056 3.431zm-35.729-25.037c.26 2.48 1.7 4.645 3.799 5.903l2.056-3.431c-1.06-.635-1.752-1.707-1.877-2.89l-3.978.418zm3.799-35.175c-2.099 1.258-3.538 3.423-3.799 5.903l3.978.418c.125-1.183.817-2.255 1.877-2.89l-2.056-3.431zm33.755-23.537a4 4 0 0 1-1.825 4.403l2.057 3.431a8 8 0 0 0 3.648-8.807l-3.88.973zM157.038 2.563c-1.258-2.099-3.423-3.538-5.903-3.799l-.418 3.978c1.183.125 2.255.817 2.89 1.877l3.431-2.056zM28.756 49.467c-1.567 1.937-2.08 4.485-1.485 6.856l3.88-.972c-.3-1.198-.033-2.444.715-3.368l-3.11-2.516zm151.82-13.15a4 4 0 0 1-4.403-1.824l-3.431 2.057a8 8 0 0 0 8.807 3.648l-.973-3.88zm-89.125 3.88a8 8 0 0 0 8.807-3.647l-3.431-2.056a4 4 0 0 1-4.403 1.824l-.973 3.88zm24.51 230.24c1.258 2.099 3.423 3.538 5.903 3.799l.418-3.978c-1.183-.125-2.255-.817-2.89-1.877l-3.431 2.056zM223.533 28.756c-1.937-1.567-4.485-2.08-6.856-1.485l.972 3.88c1.198-.3 2.444-.033 3.369.715l2.515-3.11zM56.323 27.27c-2.371-.595-4.919-.082-6.856 1.485l2.516 3.11c.924-.748 2.17-1.015 3.368-.715l.972-3.88z" fill="#2665C2" mask="url(#a)"/><circle cx="136.5" cy="136.5" r="38.124" fill="#fff" stroke="#2665C2" stroke-width="2"/><circle cx="441" cy="131.5" r="4.5" stroke="#96C1EB" stroke-width="2"/><g style="mix-blend-mode:multiply"><mask id="b" fill="#fff"><path fill-rule="evenodd" clip-rule="evenodd" d="M343.078 313.519l-10.475-4.136a57.162 57.162 0 0 0-11.215 11.234l4.131 10.461-11.125 1.654a57.143 57.143 0 0 0-4.122 15.329l8.82 7.004-8.812 6.998a57.74 57.74 0 0 0 4.109 15.334l11.13 1.654-4.136 10.475a57.108 57.108 0 0 0 11.234 11.215l10.461-4.13 1.654 11.125a57.141 57.141 0 0 0 15.329 4.121l7.004-8.819 6.997 8.812c2.6-.324 5.207-.83 7.809-1.527a57.738 57.738 0 0 0 7.526-2.582l1.654-11.13 10.475 4.136a57.162 57.162 0 0 0 11.215-11.234l-4.13-10.462 11.125-1.653a57.141 57.141 0 0 0 4.121-15.329l-8.819-7.004 8.812-6.998a57.807 57.807 0 0 0-4.109-15.334l-11.13-1.655 4.136-10.475a57.19 57.19 0 0 0-11.234-11.215l-10.462 4.131-1.653-11.125a57.143 57.143 0 0 0-15.329-4.122l-7.004 8.82-6.998-8.812a57.938 57.938 0 0 0-15.335 4.108l-1.654 11.131zm32.096 71.81c16.714-4.479 26.633-21.659 22.155-38.373-4.479-16.715-21.659-26.634-38.373-22.155-16.715 4.478-26.634 21.659-22.155 38.373 4.478 16.714 21.659 26.633 38.373 22.155z"/></mask><path fill-rule="evenodd" clip-rule="evenodd" d="M343.078 313.519l-10.475-4.136a57.162 57.162 0 0 0-11.215 11.234l4.131 10.461-11.125 1.654a57.143 57.143 0 0 0-4.122 15.329l8.82 7.004-8.812 6.998a57.74 57.74 0 0 0 4.109 15.334l11.13 1.654-4.136 10.475a57.108 57.108 0 0 0 11.234 11.215l10.461-4.13 1.654 11.125a57.141 57.141 0 0 0 15.329 4.121l7.004-8.819 6.997 8.812c2.6-.324 5.207-.83 7.809-1.527a57.738 57.738 0 0 0 7.526-2.582l1.654-11.13 10.475 4.136a57.162 57.162 0 0 0 11.215-11.234l-4.13-10.462 11.125-1.653a57.141 57.141 0 0 0 4.121-15.329l-8.819-7.004 8.812-6.998a57.807 57.807 0 0 0-4.109-15.334l-11.13-1.655 4.136-10.475a57.19 57.19 0 0 0-11.234-11.215l-10.462 4.131-1.653-11.125a57.143 57.143 0 0 0-15.329-4.122l-7.004 8.82-6.998-8.812a57.938 57.938 0 0 0-15.335 4.108l-1.654 11.131zm32.096 71.81c16.714-4.479 26.633-21.659 22.155-38.373-4.479-16.715-21.659-26.634-38.373-22.155-16.715 4.478-26.634 21.659-22.155 38.373 4.478 16.714 21.659 26.633 38.373 22.155z" fill="#DCECFF"/><path d="M332.603 309.383l.735-1.86-1.044-.413-.896.677 1.205 1.596zm10.475 4.136l-.734 1.86 2.342.925.371-2.491-1.979-.294zm-21.69 7.098l-1.597-1.203-.675.895.412 1.042 1.86-.734zm4.131 10.461l.294 1.979 2.491-.371-.925-2.342-1.86.734zm-11.125 1.654l-.294-1.978-1.109.164-.438 1.032 1.841.782zm-4.122 15.329l-1.985-.245-.137 1.113.878.698 1.244-1.566zm8.82 7.004l1.244 1.566 1.972-1.566-1.972-1.566-1.244 1.566zm-8.812 6.998l-1.244-1.567-.88.699.139 1.115 1.985-.247zm4.109 15.334l-1.843.778.437 1.035 1.112.165.294-1.978zm11.13 1.654l1.86.735.925-2.343-2.491-.37-.294 1.978zm-4.136 10.475l-1.86-.734-.413 1.044.677.895 1.596-1.205zm11.234 11.215l-1.203 1.598.895.674 1.042-.411-.734-1.861zm10.461-4.13l1.979-.294-.371-2.492-2.342.925.734 1.861zm1.654 11.125l-1.979.294.165 1.108 1.032.439.782-1.841zm15.329 4.121l-.245 1.985 1.113.138.698-.879-1.566-1.244zm7.004-8.819l1.566-1.244-1.566-1.972-1.566 1.972 1.566 1.244zm6.997 8.812l-1.566 1.244.699.879 1.115-.138-.248-1.985zm15.335-4.109l.778 1.842 1.035-.437.165-1.111-1.978-.294zm1.654-11.13l.735-1.861-2.343-.925-.37 2.492 1.978.294zm10.475 4.136l-.734 1.86 1.044.412.895-.676-1.205-1.596zm11.215-11.234l1.598 1.203.674-.895-.412-1.043-1.86.735zm-4.13-10.462l-.294-1.978-2.492.37.925 2.343 1.861-.735zm11.125-1.653l.294 1.978 1.108-.165.438-1.031-1.84-.782zm4.121-15.329l1.985.245.138-1.114-.879-.698-1.244 1.567zm-8.819-7.004l-1.244-1.566-1.972 1.566 1.972 1.566 1.244-1.566zm8.812-6.998l1.244 1.566.879-.698-.138-1.115-1.985.247zm-4.109-15.334l1.842-.779-.437-1.035-1.111-.165-.294 1.979zm-11.13-1.655l-1.861-.734-.925 2.342 2.492.371.294-1.979zm4.136-10.475l1.86.735.412-1.044-.676-.896-1.596 1.205zm-11.234-11.215l1.203-1.597-.895-.675-1.043.412.735 1.86zm-10.462 4.131l-1.978.294.37 2.491 2.343-.925-.735-1.86zm-1.653-11.125l1.978-.294-.165-1.109-1.031-.438-.782 1.841zm-15.329-4.122l.245-1.985-1.114-.137-.698.878 1.567 1.244zm-7.004 8.82l-1.566 1.244 1.566 1.972 1.566-1.972-1.566-1.244zm-6.998-8.812l1.566-1.244-.698-.88-1.115.139.247 1.985zm-15.335 4.108l-.778-1.842-1.035.437-.165 1.111 1.978.294zm-12.864 8.855l10.476 4.136 1.469-3.72-10.475-4.136-1.47 3.72zm-8.882 10.577a55.131 55.131 0 0 1 10.822-10.841l-2.41-3.192a59.134 59.134 0 0 0-11.607 11.627l3.195 2.406zm4.393 8.524l-4.131-10.462-3.72 1.469 4.131 10.462 3.72-1.469zm-12.691 4.366l11.125-1.653-.588-3.957-11.125 1.654.588 3.956zm-2.431 13.597a55.157 55.157 0 0 1 3.977-14.793l-3.681-1.564a59.171 59.171 0 0 0-4.266 15.866l3.97.491zm8.079 5.192l-8.82-7.004-2.488 3.132 8.82 7.004 2.488-3.132zm-8.813 10.13l8.813-6.998-2.488-3.132-8.812 6.997 2.487 3.133zm2.215 5.725a55.873 55.873 0 0 1-1.474-7.538l-3.969.494c.335 2.69.859 5.388 1.58 8.079l3.863-1.035zm2.493 7.265a55.782 55.782 0 0 1-2.493-7.265l-3.863 1.035a59.68 59.68 0 0 0 2.671 7.786l3.685-1.556zm9.582.454l-11.13-1.654-.588 3.956 11.13 1.655.588-3.957zm-2.57 13.188l4.136-10.475-3.72-1.469-4.136 10.475 3.72 1.469zm10.577 8.883a55.136 55.136 0 0 1-10.841-10.823l-3.192 2.41a59.14 59.14 0 0 0 11.627 11.608l2.406-3.195zm8.524-4.394l-10.462 4.131 1.469 3.721 10.462-4.131-1.469-3.721zm4.366 12.692l-1.653-11.125-3.957.588 1.653 11.125 3.957-.588zm13.597 2.43a55.12 55.12 0 0 1-14.793-3.977l-1.564 3.682a59.123 59.123 0 0 0 15.866 4.265l.491-3.97zm5.192-8.078l-7.004 8.82 3.132 2.487 7.004-8.819-3.132-2.488zm10.13 8.812l-6.998-8.812-3.132 2.488 6.997 8.812 3.133-2.488zm5.725-2.215a55.733 55.733 0 0 1-7.539 1.474l.495 3.97a59.727 59.727 0 0 0 8.079-1.58l-1.035-3.864zm7.265-2.492a55.83 55.83 0 0 1-7.265 2.492l1.035 3.864a59.683 59.683 0 0 0 7.786-2.672l-1.556-3.684zm.454-9.582l-1.654 11.13 3.956.588 1.654-11.13-3.956-.588zm13.188 2.57l-10.475-4.137-1.469 3.721 10.475 4.136 1.469-3.72zm8.883-10.577a55.163 55.163 0 0 1-10.823 10.841l2.41 3.192a59.14 59.14 0 0 0 11.608-11.627l-3.195-2.406zm-4.394-8.524l4.131 10.461 3.72-1.469-4.13-10.461-3.721 1.469zm12.692-4.366l-11.125 1.653.588 3.957 11.125-1.654-.588-3.956zm2.43-13.597a55.157 55.157 0 0 1-3.977 14.793l3.681 1.564a59.097 59.097 0 0 0 4.266-15.866l-3.97-.491zm-8.078-5.192l8.82 7.004 2.487-3.133-8.82-7.003-2.487 3.132zm8.812-10.13l-8.812 6.998 2.487 3.132 8.813-6.998-2.488-3.132zm-2.215-5.725a55.719 55.719 0 0 1 1.474 7.538l3.97-.494a59.697 59.697 0 0 0-1.58-8.079l-3.864 1.035zm-2.492-7.265a55.727 55.727 0 0 1 2.492 7.265l3.864-1.035a59.697 59.697 0 0 0-2.672-7.787l-3.684 1.557zm-9.582-.454l11.13 1.654.588-3.957-11.13-1.654-.588 3.957zm2.569-13.188l-4.136 10.475 3.721 1.469 4.136-10.475-3.721-1.469zm-10.576-8.883a55.153 55.153 0 0 1 10.84 10.822l3.193-2.41a59.161 59.161 0 0 0-11.627-11.607l-2.406 3.195zm-8.524 4.393l10.461-4.13-1.469-3.721-10.461 4.131 1.469 3.72zm-4.366-12.691l1.653 11.125 3.956-.588-1.653-11.125-3.956.588zm-13.597-2.431a55.121 55.121 0 0 1 14.793 3.978l1.564-3.682a59.171 59.171 0 0 0-15.866-4.266l-.491 3.97zm-5.192 8.079l7.004-8.82-3.133-2.488-7.003 8.82 3.132 2.488zm-10.13-8.813l6.998 8.813 3.132-2.488-6.998-8.812-3.132 2.487zm-5.725 2.215a55.843 55.843 0 0 1 7.538-1.474l-.494-3.969c-2.69.335-5.389.859-8.079 1.58l1.035 3.863zm-7.265 2.493a55.73 55.73 0 0 1 7.265-2.493l-1.035-3.863a59.694 59.694 0 0 0-7.787 2.671l1.557 3.685zm-.454 9.582l1.654-11.131-3.957-.588-1.654 11.131 3.957.588zm50.34 33.66c4.193 15.648-5.093 31.731-20.741 35.924l1.036 3.864c17.781-4.765 28.333-23.042 23.569-40.823l-3.864 1.035zm-35.924-20.74c15.648-4.193 31.731 5.093 35.924 20.74l3.864-1.035c-4.765-17.781-23.042-28.333-40.823-23.569l1.035 3.864zm-20.74 35.923c-4.193-15.647 5.093-31.731 20.74-35.923l-1.035-3.864c-17.781 4.765-28.333 23.041-23.569 40.823l3.864-1.036zm35.923 20.741c-15.647 4.193-31.731-5.093-35.923-20.741l-3.864 1.036c4.764 17.781 23.041 28.333 40.823 23.569l-1.036-3.864z" fill="#2665C2" mask="url(#b)"/><circle cx="367.065" cy="355.065" r="12.778" transform="rotate(-15 367.065 355.065)" stroke="#2665C2" stroke-width="2"/></g><path d="M421 152H143a8 8 0 0 0-8 8v176h294V160a8 8 0 0 0-8-8z" fill="#96C1EB" fill-opacity=".2"/><path d="M134 145h278a7 7 0 0 1 7 7v181H127V152a7 7 0 0 1 7-7z" fill="#fff" stroke="#2665C2" stroke-width="2"/><path d="M106 333a7 7 0 0 1 7-7h150.197c.792 0 1.532.396 1.971 1.055a4.369 4.369 0 0 0 3.635 1.945h8.394c1.461 0 2.825-.73 3.635-1.945a2.369 2.369 0 0 1 1.971-1.055H433a7 7 0 1 1 0 14H113a7 7 0 0 1-7-7z" fill="#96C1EB" stroke="#2665C2" stroke-width="2"/><path opacity=".15" d="M105 341a8 8 0 0 1 8-8h150.197c1.127 0 2.178.563 2.803 1.5a3.369 3.369 0 0 0 2.803 1.5h8.394a3.369 3.369 0 0 0 2.803-1.5 3.369 3.369 0 0 1 2.803-1.5H433a8 8 0 0 1 0 16H113a8 8 0 0 1-8-8z" fill="#96C1EB"/><path d="M164 172a4 4 0 0 0-4 4v16.283a4 4 0 0 1-1.88 3.392l-.763.477a1 1 0 0 0 0 1.696l.763.477a4 4 0 0 1 1.88 3.392V218a4 4 0 0 0 4 4M176 172a4 4 0 0 1 4 4v16.283a4 4 0 0 0 1.88 3.392l.763.477a1 1 0 0 1 0 1.696l-.763.477a4 4 0 0 0-1.88 3.392V218a4 4 0 0 1-4 4" stroke="#B2D5FD" stroke-width="2"/><path d="M202 172h18.5" stroke="#F08729" stroke-width="2"/><path d="M202 226h18.5" stroke="#2665C2" stroke-width="2"/><path d="M206 178h11" stroke="#B2D5FD" stroke-width="2"/><path d="M247 178h11" stroke="#7BD2AF" stroke-width="2"/><path d="M219 178h26" stroke="#DD435F" stroke-width="2"/><path d="M207 220h11" stroke="#7BD2AF" stroke-width="2"/><path d="M247 220h11" stroke="#B2D5FD" stroke-width="2"/><path d="M219 220h26" stroke="#DD435F" stroke-width="2"/><path d="M217 184h11" stroke="#F08729" stroke-width="2"/><path d="M249 184h19" stroke="#B2D5FD" stroke-width="2"/><path d="M230 184h17" stroke="#DD435F" stroke-width="2"/><path d="M217 214h11" stroke="#2665C2" stroke-width="2"/><path d="M250 214h19" stroke="#7BD2AF" stroke-width="2"/><path d="M230 214h17" stroke="#DD435F" stroke-width="2"/><path d="M225 190h17M257 190h19" stroke="#2665C2" stroke-width="2"/><path d="M245 190h11" stroke="#7BD2AF" stroke-width="2"/><path d="M225 196h11" stroke="#B2D5FD" stroke-width="2"/><path d="M266 196h19M238 196h26" stroke="#2665C2" stroke-width="2"/><path d="M226 202h6" stroke="#7BD2AF" stroke-width="2"/><path d="M233 202h22" stroke="#DD435F" stroke-width="2"/><path d="M257 202h19M225 208h18" stroke="#2665C2" stroke-width="2"/><path d="M276 208h22" stroke="#F08729" stroke-width="2"/><path d="M245 208h29" stroke="#B2D5FD" stroke-width="2"/><path d="M222 233h18.5" stroke="#F08729" stroke-width="2"/><path d="M222 287h18.5M226 239h11" stroke="#2665C2" stroke-width="2"/><path d="M267 239h11" stroke="#7BD2AF" stroke-width="2"/><path d="M239 239h26" stroke="#2665C2" stroke-width="2"/><path d="M227 281h11" stroke="#7BD2AF" stroke-width="2"/><path d="M267 281h11M239 281h26" stroke="#2665C2" stroke-width="2"/><path d="M237 245h11" stroke="#F08729" stroke-width="2"/><path d="M269 245h19" stroke="#2665C2" stroke-width="2"/><path d="M250 245h17" stroke="#B2D5FD" stroke-width="2"/><path d="M237 275h11" stroke="#2665C2" stroke-width="2"/><path d="M270 275h19" stroke="#7BD2AF" stroke-width="2"/><path d="M250 275h17M245 251h17" stroke="#2665C2" stroke-width="2"/><path d="M277 251h19" stroke="#B2D5FD" stroke-width="2"/><path d="M265 251h11" stroke="#7BD2AF" stroke-width="2"/><path d="M245 257h11M286 257h19M258 257h26" stroke="#2665C2" stroke-width="2"/><path d="M246 263h6" stroke="#7BD2AF" stroke-width="2"/><path d="M253 263h22M277 263h19M245 269h18" stroke="#2665C2" stroke-width="2"/><path d="M296 269h22" stroke="#F08729" stroke-width="2"/><path d="M265 269h29" stroke="#2665C2" stroke-width="2"/><path d="M336 120a7 7 0 0 1 7-7h42a7 7 0 0 1 7 7v42a7 7 0 0 1-7 7h-42a7 7 0 0 1-7-7v-42z" fill="#fff" stroke="#2665C2" stroke-width="2"/><path d="M353.48 141.702h-4.62V146h-1.68v-9.8h1.68v4.018h4.62V136.2h1.68v9.8h-1.68v-4.298zm2.87-5.502h7.7v1.484h-3.01V146h-1.68v-8.316h-3.01V136.2zm11.145 3.36l-.574-1.484V146h-1.68v-9.8h2.52l2.184 5.306 2.184-5.306h2.492v9.8h-1.68v-7.938l-.588 1.498-1.582 3.85h-1.68l-1.596-3.85zm9.08-3.36h1.68v8.316h4.34V146h-6.02v-9.8z" fill="#292931"/><path d="M87 276a8 8 0 0 1 8-8h68a8 8 0 0 1 8 8v132a8 8 0 0 1-8 8H95a8 8 0 0 1-8-8V276z" fill="#EFF6FC"/><path d="M83 270a7 7 0 0 1 7-7h68a7 7 0 0 1 7 7v132a7 7 0 0 1-7 7H90a7 7 0 0 1-7-7V270zM170 106a7 7 0 0 1 7-7h48a7 7 0 0 1 7 7v48a7 7 0 0 1-7 7h-48a7 7 0 0 1-7-7v-48z" fill="#fff" stroke="#2665C2" stroke-width="2"/><path d="M185.633 136.171c-1.342 0-2.381-.399-3.116-1.197-.734-.811-1.152-1.957-1.254-3.439h2.28c.089 1.672.786 2.508 2.09 2.508.646 0 1.153-.215 1.52-.646.38-.431.57-1.146.57-2.147v-8.55h2.28v8.55c0 1.647-.386 2.882-1.159 3.705-.772.811-1.843 1.216-3.211 1.216zm9.313 0c-1.026 0-1.805-.253-2.337-.76-.532-.507-.798-1.21-.798-2.109 0-.494.076-.937.228-1.33a2.4 2.4 0 0 1 .76-1.007c.355-.279.805-.488 1.349-.627.558-.152 1.235-.228 2.033-.228h1.596v-.57c0-.456-.126-.798-.38-1.026-.24-.241-.646-.361-1.216-.361-.532 0-.918.101-1.159.304-.24.203-.386.469-.437.798h-2.394c.051-.849.393-1.545 1.026-2.09.646-.557 1.634-.836 2.964-.836 1.267 0 2.217.291 2.85.874.634.583.95 1.362.95 2.337V136h-1.729l-.228-1.311c-.329.481-.76.849-1.292 1.102-.519.253-1.114.38-1.786.38zm.38-1.824c.355 0 .678-.057.969-.171.304-.127.564-.291.779-.494a2.56 2.56 0 0 0 .513-.722c.127-.266.19-.551.19-.855v-.285h-1.596c-.76 0-1.292.127-1.596.38-.304.253-.456.595-.456 1.026 0 .342.102.614.304.817.216.203.513.304.893.304zm5.51-7.847h2.394l2.47 7.106 2.356-7.106h2.28l-3.325 9.5h-2.66l-3.515-9.5zm12.925 9.671c-1.026 0-1.805-.253-2.337-.76-.532-.507-.798-1.21-.798-2.109 0-.494.076-.937.228-1.33.164-.405.418-.741.76-1.007.354-.279.804-.488 1.349-.627.557-.152 1.235-.228 2.033-.228h1.596v-.57c0-.456-.127-.798-.38-1.026-.241-.241-.646-.361-1.216-.361-.532 0-.919.101-1.159.304a1.252 1.252 0 0 0-.437.798h-2.394c.05-.849.392-1.545 1.026-2.09.646-.557 1.634-.836 2.964-.836 1.266 0 2.216.291 2.85.874.633.583.95 1.362.95 2.337V136h-1.729l-.228-1.311c-.33.481-.76.849-1.292 1.102-.52.253-1.115.38-1.786.38zm.38-1.824c.354 0 .677-.057.969-.171.304-.127.563-.291.779-.494a2.6 2.6 0 0 0 .513-.722c.126-.266.19-.551.19-.855v-.285h-1.596c-.76 0-1.292.127-1.596.38-.304.253-.456.595-.456 1.026 0 .342.101.614.304.817.215.203.513.304.893.304z" fill="#292931"/><path d="M21 228a7 7 0 0 1 7-7h68a7 7 0 0 1 7 7v68a7 7 0 0 1-7 7H28a7 7 0 0 1-7-7v-68z" fill="#fff" stroke="#2665C2" stroke-width="2"/><path d="M50.852 274.288c-2.261 0-4.01-.672-5.248-2.016-1.237-1.365-1.941-3.296-2.112-5.792h3.84c.15 2.816 1.322 4.224 3.52 4.224 1.088 0 1.941-.363 2.56-1.088.64-.725.96-1.931.96-3.616v-14.4h3.84V266c0 2.773-.65 4.853-1.952 6.24-1.301 1.365-3.104 2.048-5.408 2.048zm19.205 0c-2.795 0-4.864-.629-6.208-1.888-1.344-1.28-2.101-3.253-2.272-5.92h4.096c.106 1.536.49 2.624 1.152 3.264.682.619 1.76.928 3.232.928 1.536 0 2.656-.288 3.36-.864.725-.576 1.088-1.28 1.088-2.112 0-.832-.31-1.472-.928-1.92-.619-.448-1.397-.811-2.336-1.088a40.912 40.912 0 0 0-3.04-.832 15.132 15.132 0 0 1-3.04-1.12 6.607 6.607 0 0 1-2.336-1.92c-.619-.811-.928-1.899-.928-3.264 0-.896.17-1.717.512-2.464a5.455 5.455 0 0 1 1.504-1.984c.683-.576 1.536-1.013 2.56-1.312 1.024-.32 2.219-.48 3.584-.48 2.73 0 4.725.597 5.984 1.792 1.28 1.173 2.005 2.965 2.176 5.376H74.12c-.107-1.28-.47-2.197-1.088-2.752-.597-.555-1.6-.832-3.008-.832-1.45 0-2.496.267-3.136.8-.64.512-.96 1.141-.96 1.888 0 .789.31 1.397.928 1.824.618.405 1.397.747 2.336 1.024a83.87 83.87 0 0 0 3.04.832c1.088.256 2.101.629 3.04 1.12a6.359 6.359 0 0 1 2.336 1.984c.619.832.928 1.963.928 3.392 0 .96-.17 1.845-.512 2.656a5.39 5.39 0 0 1-1.568 2.048c-.683.576-1.557 1.024-2.624 1.344-1.067.32-2.326.48-3.776.48z" fill="#292931"/><path d="M192 379a7 7 0 0 1 7-7h35a7 7 0 0 1 7 7v35a7 7 0 0 1-7 7h-35a7 7 0 0 1-7-7v-35z" fill="#fff" stroke="#2665C2" stroke-width="2"/><path d="M207.2 403.144c-1.397 0-2.432-.315-3.104-.944-.672-.64-1.05-1.627-1.136-2.96h2.048c.054.768.246 1.312.576 1.632.342.309.88.464 1.616.464.768 0 1.328-.144 1.68-.432.363-.288.544-.64.544-1.056 0-.416-.154-.736-.464-.96-.309-.224-.698-.405-1.168-.544a20.655 20.655 0 0 0-1.52-.416 7.582 7.582 0 0 1-1.52-.56 3.323 3.323 0 0 1-1.168-.96c-.309-.405-.464-.949-.464-1.632 0-.448.086-.859.256-1.232.171-.384.422-.715.752-.992.342-.288.768-.507 1.28-.656.512-.16 1.11-.24 1.792-.24 1.366 0 2.363.299 2.992.896.64.587 1.003 1.483 1.088 2.688h-2.048c-.053-.64-.234-1.099-.544-1.376-.298-.277-.8-.416-1.504-.416-.725 0-1.248.133-1.568.4-.32.256-.48.571-.48.944 0 .395.155.699.464.912.31.203.699.373 1.168.512.47.139.976.277 1.52.416a6.47 6.47 0 0 1 1.52.56c.47.235.859.565 1.168.992.31.416.464.981.464 1.696 0 .48-.085.923-.256 1.328-.17.395-.432.736-.784 1.024-.341.288-.778.512-1.312.672-.533.16-1.162.24-1.888.24zm10.566 0a5.725 5.725 0 0 1-2.048-.352 4.524 4.524 0 0 1-1.568-1.04 4.78 4.78 0 0 1-.992-1.68c-.235-.661-.352-1.413-.352-2.256v-.832c0-.832.117-1.579.352-2.24.245-.661.581-1.216 1.008-1.664.437-.459.96-.811 1.568-1.056a5.473 5.473 0 0 1 2.032-.368c.747 0 1.424.123 2.032.368a4.084 4.084 0 0 1 1.568 1.04 4.666 4.666 0 0 1 1.008 1.68c.235.651.352 1.397.352 2.24v.832c0 .864-.128 1.632-.384 2.304a4.752 4.752 0 0 1-1.072 1.696l1.456 1.984h-2.048l-.784-1.056c-.32.128-.656.224-1.008.288a5.364 5.364 0 0 1-1.12.112zm0-1.792c.352 0 .683-.048.992-.144l-1.312-1.808h2.048l.592.816c.192-.288.341-.629.448-1.024a4.96 4.96 0 0 0 .176-1.376v-.832c0-.576-.075-1.083-.224-1.52-.139-.448-.341-.816-.608-1.104a2.41 2.41 0 0 0-.928-.672 2.9 2.9 0 0 0-1.184-.24c-.885 0-1.6.299-2.144.896-.533.587-.8 1.467-.8 2.64v.832c0 1.163.272 2.043.816 2.64.555.597 1.264.896 2.128.896zm6.799-9.552h1.92v9.504h4.96V403h-6.88v-11.2z" fill="#292931"/><path d="M299 324a7 7 0 0 1 7-7h49a7 7 0 0 1 7 7v49a7 7 0 0 1-7 7h-49a7 7 0 0 1-7-7v-49z" fill="#fff" stroke="#2665C2" stroke-width="2"/><path d="M314.837 336.64l-.672-1.456V344h-1.92v-11.2h2.688l3.84 7.36.672 1.472V332.8h1.92V344h-2.688l-3.84-7.36zm12.047 7.504c-1.205 0-2.149-.341-2.832-1.024-.672-.683-1.008-1.637-1.008-2.864v-.512c0-.608.086-1.152.256-1.632.182-.48.438-.885.768-1.216a3.299 3.299 0 0 1 1.216-.768c.47-.181 1.003-.272 1.6-.272 1.206 0 2.144.341 2.816 1.024.683.683 1.024 1.637 1.024 2.864v.512c0 .608-.09 1.152-.272 1.632-.17.48-.426.891-.768 1.232-.33.331-.736.587-1.216.768a4.601 4.601 0 0 1-1.584.256zm0-1.728c.608 0 1.072-.176 1.392-.528.331-.352.496-.896.496-1.632v-.512c0-.725-.17-1.264-.512-1.616-.33-.363-.789-.544-1.376-.544-.608 0-1.077.176-1.408.528-.32.352-.48.896-.48 1.632v.512c0 .725.166 1.269.496 1.632.342.352.806.528 1.392.528zm8.125 1.728c-.469 0-.896-.08-1.28-.24-.384-.16-.72-.4-1.008-.72a3.69 3.69 0 0 1-.656-1.216c-.149-.491-.224-1.061-.224-1.712v-.512c0-.64.08-1.2.24-1.68.16-.48.379-.885.656-1.216a2.703 2.703 0 0 1 1.008-.736 3.074 3.074 0 0 1 1.264-.256c.992 0 1.771.315 2.336.944v-4h1.856V344h-1.456l-.176-1.072a2.606 2.606 0 0 1-1.072.912c-.437.203-.933.304-1.488.304zm.56-1.728c.502 0 .918-.171 1.248-.512.331-.352.507-.864.528-1.536v-.624c0-.704-.17-1.237-.512-1.6a1.614 1.614 0 0 0-1.264-.56c-.565 0-1.002.171-1.312.512-.309.331-.464.88-.464 1.648v.512c0 .736.16 1.28.48 1.632.32.352.752.528 1.296.528zm8.985 1.728a4.42 4.42 0 0 1-1.552-.256 3.441 3.441 0 0 1-1.184-.768 3.564 3.564 0 0 1-.768-1.232 4.87 4.87 0 0 1-.256-1.632v-.512c0-.608.086-1.152.256-1.632.182-.48.438-.885.768-1.216a3.175 3.175 0 0 1 1.184-.768 4.2 4.2 0 0 1 1.552-.272c1.163 0 2.08.357 2.752 1.072.672.715 1.008 1.739 1.008 3.072v.624h-5.664c.054.672.24 1.157.56 1.456.32.288.768.432 1.344.432.566 0 .976-.096 1.232-.288.267-.203.443-.437.528-.704h1.92c-.085.373-.218.72-.4 1.04-.181.32-.421.597-.72.832a3.477 3.477 0 0 1-1.088.56 5.126 5.126 0 0 1-1.472.192zm0-6.656c-.544 0-.97.133-1.28.4-.309.267-.506.688-.592 1.264h3.744c-.074-.597-.272-1.024-.592-1.28-.309-.256-.736-.384-1.28-.384zm-19.878 26.656c-1.131 0-2.005-.336-2.624-1.008-.619-.683-.971-1.648-1.056-2.896h1.92c.075 1.408.661 2.112 1.76 2.112.544 0 .971-.181 1.28-.544.32-.363.48-.965.48-1.808v-7.2h1.92v7.2c0 1.387-.325 2.427-.976 3.12-.651.683-1.552 1.024-2.704 1.024zm9.602 0c-1.397 0-2.432-.315-3.104-.944-.672-.64-1.05-1.627-1.136-2.96h2.048c.054.768.246 1.312.576 1.632.342.309.88.464 1.616.464.768 0 1.328-.144 1.68-.432.363-.288.544-.64.544-1.056 0-.416-.154-.736-.464-.96-.309-.224-.698-.405-1.168-.544a20.655 20.655 0 0 0-1.52-.416 7.582 7.582 0 0 1-1.52-.56 3.323 3.323 0 0 1-1.168-.96c-.309-.405-.464-.949-.464-1.632 0-.448.086-.859.256-1.232.171-.384.422-.715.752-.992.342-.288.768-.507 1.28-.656.512-.16 1.11-.24 1.792-.24 1.366 0 2.363.299 2.992.896.64.587 1.003 1.483 1.088 2.688h-2.048c-.053-.64-.234-1.099-.544-1.376-.298-.277-.8-.416-1.504-.416-.725 0-1.248.133-1.568.4-.32.256-.48.571-.48.944 0 .395.155.699.464.912.31.203.699.373 1.168.512.47.139.976.277 1.52.416a6.47 6.47 0 0 1 1.52.56c.47.235.859.565 1.168.992.31.416.464.981.464 1.696 0 .48-.085.923-.256 1.328-.17.395-.432.736-.784 1.024-.341.288-.778.512-1.312.672-.533.16-1.162.24-1.888.24z" fill="#292931"/><path d="M124 319l19 11v22l-19 11-19-11v-22l19-11z" fill="#fff" stroke="#DD435F" stroke-width="2" stroke-linejoin="round"/><path d="M104.895 330l19.139 11v21.396M143 330.5L124 341" stroke="#DD435F" stroke-width="2" stroke-linejoin="round"/><circle cx="68.5" cy="327.5" r="4.5" stroke="#96C1EB" stroke-width="2"/><path d="M148 247a7 7 0 0 1 7-7h35a7 7 0 0 1 7 7v35a7 7 0 0 1-7 7h-35a7 7 0 0 1-7-7v-35z" fill="#fff" stroke="#2665C2" stroke-width="2"/><path d="M385 213a7 7 0 0 1 7-7h68a7 7 0 0 1 7 7v68a7 7 0 0 1-7 7h-68a7 7 0 0 1-7-7v-68z" fill="#fff" stroke="#E13573" stroke-width="2"/><path d="M396.97 239.7h4.56c1.786 0 3.084.38 3.895 1.14.823.747 1.235 1.83 1.235 3.249 0 1.33-.431 2.394-1.292 3.192-.862.798-2.141 1.197-3.838 1.197h-2.28V253h-2.28v-13.3zm2.28 2.014v4.75h2.28c.912 0 1.596-.215 2.052-.646.456-.431.684-1.007.684-1.729 0-.76-.222-1.343-.665-1.748-.431-.418-1.121-.627-2.071-.627h-2.28zM411.317 253l-3.819-9.5h2.394l2.584 6.802 2.432-6.802h2.28l-5.035 13.3h-2.28l1.444-3.8zm6.628-9.5h1.71v-2.66h2.204v2.66h2.356v1.938h-2.356v4.199c0 .494.107.855.323 1.083.228.228.563.342 1.007.342h1.216V253h-1.615c-1.014 0-1.793-.266-2.337-.798-.532-.545-.798-1.324-.798-2.337v-4.427h-1.71V243.5zm7.986-3.8h2.204v4.617c.634-.659 1.514-.988 2.641-.988 1.166 0 2.071.348 2.717 1.045.659.684.988 1.723.988 3.116V253h-2.204v-5.51c0-.697-.171-1.222-.513-1.577-.329-.355-.785-.532-1.368-.532-.684 0-1.228.184-1.634.551-.392.367-.601.855-.627 1.463V253h-2.204v-13.3zm14.919 13.471c-1.431 0-2.552-.405-3.363-1.216-.798-.811-1.197-1.944-1.197-3.401v-.608c0-.722.101-1.368.304-1.938.215-.57.519-1.051.912-1.444a3.906 3.906 0 0 1 1.444-.912c.557-.215 1.191-.323 1.9-.323 1.431 0 2.546.405 3.344 1.216.811.811 1.216 1.944 1.216 3.401v.608c0 .722-.108 1.368-.323 1.938a3.877 3.877 0 0 1-.912 1.463 4.012 4.012 0 0 1-1.444.912c-.557.203-1.184.304-1.881.304zm0-2.052c.722 0 1.273-.209 1.653-.627.393-.418.589-1.064.589-1.938v-.608c0-.861-.203-1.501-.608-1.919-.393-.431-.937-.646-1.634-.646-.722 0-1.279.209-1.672.627-.38.418-.57 1.064-.57 1.938v.608c0 .861.196 1.507.589 1.938.405.418.956.627 1.653.627zm6.456-7.619h1.729l.171 1.064c.71-.823 1.691-1.235 2.945-1.235 1.166 0 2.071.348 2.717 1.045.659.684.988 1.723.988 3.116V253h-2.204v-5.51c0-.697-.171-1.222-.513-1.577-.329-.355-.785-.532-1.368-.532-.684 0-1.228.184-1.634.551-.392.367-.601.855-.627 1.463V253h-2.204v-9.5zM161.25 264.832h-1.74V268h-1.44v-8.4h2.892c1.12 0 1.936.232 2.448.696.52.464.78 1.104.78 1.92 0 .56-.128 1.044-.384 1.452-.256.4-.648.7-1.176.9l1.8 3.432h-1.632l-1.548-3.168zm-1.74-3.96v2.688h1.452c.6 0 1.036-.12 1.308-.36.272-.248.408-.576.408-.984 0-.416-.136-.744-.408-.984-.272-.24-.708-.36-1.308-.36h-1.452zm8.402 7.236a3.32 3.32 0 0 1-1.164-.192 2.581 2.581 0 0 1-.888-.576 2.66 2.66 0 0 1-.576-.924 3.64 3.64 0 0 1-.192-1.224v-.384c0-.456.064-.864.192-1.224.136-.36.328-.664.576-.912a2.37 2.37 0 0 1 .888-.576 3.144 3.144 0 0 1 1.164-.204c.872 0 1.56.268 2.064.804s.756 1.304.756 2.304v.468h-4.248c.04.504.18.868.42 1.092.24.216.576.324 1.008.324.424 0 .732-.072.924-.216.2-.152.332-.328.396-.528h1.44a2.87 2.87 0 0 1-.3.78c-.136.24-.316.448-.54.624a2.616 2.616 0 0 1-.816.42c-.32.096-.688.144-1.104.144zm0-4.992c-.408 0-.728.1-.96.3-.232.2-.38.516-.444.948h2.808c-.056-.448-.204-.768-.444-.96-.232-.192-.552-.288-.96-.288zm5.58 4.992c-.648 0-1.14-.16-1.476-.48-.336-.32-.504-.764-.504-1.332 0-.312.048-.592.144-.84.104-.256.264-.468.48-.636.224-.176.508-.308.852-.396.352-.096.78-.144 1.284-.144h1.008v-.36c0-.288-.08-.504-.24-.648-.152-.152-.408-.228-.768-.228-.336 0-.58.064-.732.192a.793.793 0 0 0-.276.504h-1.512c.032-.536.248-.976.648-1.32.408-.352 1.032-.528 1.872-.528.8 0 1.4.184 1.8.552.4.368.6.86.6 1.476V268h-1.092l-.144-.828c-.208.304-.48.536-.816.696-.328.16-.704.24-1.128.24zm.24-1.152c.224 0 .428-.036.612-.108.192-.08.356-.184.492-.312.136-.136.244-.288.324-.456.08-.168.12-.348.12-.54v-.18h-1.008c-.48 0-.816.08-1.008.24a.8.8 0 0 0-.288.648c0 .216.064.388.192.516.136.128.324.192.564.192zm6.895 1.152c-.432 0-.824-.064-1.176-.192a2.581 2.581 0 0 1-.888-.576 2.758 2.758 0 0 1-.564-.924 3.64 3.64 0 0 1-.192-1.224v-.384a3.6 3.6 0 0 1 .192-1.212c.136-.36.328-.664.576-.912.248-.256.544-.452.888-.588.352-.136.74-.204 1.164-.204.76 0 1.348.188 1.764.564.424.376.696.864.816 1.464h-1.488a.955.955 0 0 0-.396-.528c-.2-.136-.452-.204-.756-.204-.176 0-.344.032-.504.096a1.007 1.007 0 0 0-.408.288c-.12.128-.216.296-.288.504-.064.2-.096.444-.096.732v.384c0 .28.036.524.108.732.072.2.168.368.288.504a1.188 1.188 0 0 0 .9.384c.344 0 .604-.076.78-.228.184-.152.308-.34.372-.564h1.488c-.12.632-.392 1.14-.816 1.524-.416.376-1.004.564-1.764.564zm2.878-6.108h1.08v-1.68h1.392V262h1.488v1.224h-1.488v2.652c0 .312.068.54.204.684.144.144.356.216.636.216h.768V268h-1.02c-.64 0-1.132-.168-1.476-.504-.336-.344-.504-.836-.504-1.476v-2.796h-1.08V262z" fill="#292931"/><path d="M303 446.5L270 427v39l33-19.5zM20 331.5L1 320v23l19-11.5zM496 141.5L477 130v23l19-11.5z" fill="#DD435F"/><path d="M413 76.5L446 57v39l-33-19.5zM267.5 74l16-9.5v19l-16-9.5zM153.5 447l16-9.5v19l-16-9.5z" fill="#2665C2"/></svg>