<svg version="1" xmlns="http://www.w3.org/2000/svg" width="1706.667" height="1706.667" viewBox="0 0 1280 1280"><path d="M385.7 2.6c-.1.1-4.2.4-9.2.7-4.9.3-10.6.8-12.5 1.1-1.9.3-5.5.8-8 1.1-2.5.3-6.5 1.1-9 1.7-2.5.5-5.8 1.2-7.5 1.4-1.6.3-4.1.9-5.5 1.4-1.4.4-6.5 2-11.5 3.5-4.9 1.5-10.3 3.3-12 4-1.6.7-6.6 2.8-11 4.6-8.1 3.4-9.3 4-20 9.9-7 3.8-24.8 15.5-26.9 17.6-.8.8-1.7 1.4-2 1.4-.3 0-1.4.8-2.5 1.7-1 1-4.5 4-7.7 6.8-5.9 5-16.3 15.3-21.9 21.6-9.3 10.4-24.5 31.4-24.5 33.8 0 .6-.3 1.1-.7 1.1-.5 0-1.3 1-1.9 2.3-.6 1.2-2.8 5.3-4.9 9.2-3.4 6.4-10.3 21.6-10.9 24-.2.5-.6 1.7-.9 2.5-2 4.5-3.5 10-2.9 10 .4 0 .2.4-.4.8-.9.6-3.4 8.7-4.9 15.9-.3 1.3-.7 3.2-1 4.3-.9 3.7-1.5 6.4-2 10-.3 2-.7 4.7-1 6-.3 1.4-.8 5.4-1.2 9-1 8-1 835.6-.1 842.4.4 2.7 1 6.6 1.3 8.7.4 2.2.8 4.9 1 6.2.3 2.2.8 4.4 2.2 10.2.4 1.6.6 3.6.4 4.2-.1.7.3 1.3.9 1.3.6 0 .9.3.6.8-1.8 2.9 18.1 53.7 21.6 55 .4.2.8.8.8 1.4 0 1.3 8.4 15 12.2 19.9 1.5 2 2.8 4.2 2.8 4.8 0 .6.4 1.1.9 1.1s2.5 2.1 4.3 4.7c7.7 10.8 23.4 26.5 37.7 37.9 1.3 1.1 2.9 2.5 3.6 3.1.8.7 1.8 1.3 2.3 1.3.6 0 1.2.4 1.4.9 1.1 2.9 39.5 25.1 47.8 27.6 1.4.4 3.9 1.3 5.5 2 5.9 2.6 25.5 8.7 31.5 9.9 1.4.2 5 1 8 1.6 3 .6 6.9 1.3 8.5 1.6 1.7.4 4.7.6 6.8.7 2 0 3.7.3 3.7.6 0 1.1 6.6 1.1 255.5 1.2 237.8.1 260.5 0 260.5-1.1 0-.3 2.3-.6 5.2-.8 2.8-.1 6.2-.4 7.5-.7 1.3-.3 3.5-.7 5.1-1 1.5-.3 3.4-.8 4.2-1 1.3-.4 4.3-.9 9.7-1.9.7-.1 1.6-.5 1.9-.9.4-.4 1.5-.7 2.4-.7 2.3 0 20.2-5.9 21.4-7 .5-.5 1.5-.6 2.2-.3.8.3 1.4 0 1.4-.6s.7-1.1 1.6-1.1c2 0 26.8-12 27.2-13.2.2-.4.8-.8 1.4-.8 1.2 0 18.4-11.2 24.3-15.9 12.9-10 18-14.6 26.1-23.1 9.2-9.6 12.7-13.6 14.4-16 .8-1.2 2.5-3.4 3.8-4.8 1.3-1.5 4.9-6.5 8-11.2 3.1-4.7 6.1-8.8 6.7-9.2.5-.4.6-.8.2-.8-.5 0 .1-1.3 1.2-2.9 2.3-3.1 11.2-20.7 11.1-21.6 0-.3.6-1.8 1.4-3.3 1.9-3.4 3.9-8.2 6.1-14.7.9-2.8 2-5.9 2.5-7 .5-1.1 1.2-3.6 1.6-5.5.9-4.2.9-4.1 1.7-6 .4-.8.9-2.6 1.1-4 .3-1.4.7-3.6 1-5 .3-1.4 1-5.1 1.6-8.2.6-3.2 1.2-7 1.5-8.5.3-1.6.8-6.2 1.3-10.3.9-9.7.9-453.6 0-461.5-1.3-10.5-2.3-16.4-4-24.5-.7-3-1.2-6.3-1.1-7.3 0-.9-.3-1.7-.7-1.7-.4 0-1-1.2-1.3-2.8-1.1-5.8-5-18.3-7.6-24.2-.8-1.9-1.5-3.7-1.6-4-2.5-8.5-22.9-45.1-27.4-49-.3-.3-2.8-3.4-5.6-7-14.2-18.7-36.2-38.6-58-52.5-10.4-6.6-30.7-16.7-42.5-21-2.5-.9-5.4-2-6.5-2.5-2.2-.9-11.8-3.7-15-4.5-1.1-.2-4-.9-6.5-1.6-6.3-1.5-8-1.9-12-2.4-1.9-.3-4.4-.8-5.6-1-2.7-.6-11.1-1.6-15.4-1.8-1.9-.2-3.9-.5-4.5-.8-1.4-.7-491.3-.2-501 .5-4.4.3-10.4 1.1-13.3 1.6-2.9.5-5.6.9-6 .9-.4-.1-1 0-1.4.1-1.3.4-2.1.6-7.3 1.4-2.7.4-5.4 1.1-6 1.4-.5.4-1.4.7-2 .7-4.2.2-30.6 8.8-34.2 11.1-1.3.8-2.3 1.2-2.3.9 0-.3-6 2.5-13.4 6.3-12.8 6.6-28.6 16.4-32 19.7-1.3 1.3-1.7 1.4-2.1.3-.7-1.8.1-203.5.8-207.8 1.6-9.7 2.7-15.2 3.2-16 .2-.4.7-2.2 1-4 .6-3.5 4.2-13.1 7.8-21 1.2-2.5 2-4.8 1.9-5.3-.1-.4.2-.7.8-.7.5 0 1.7-1.7 2.7-3.8 3.2-6.7 7.4-12.7 16.5-23.2 6.4-7.3 14.5-15 15.9-15 .5 0 .9-.4.9-.9 0-.9 11-8.9 12.4-8.9.5 0 1.2-.5 1.5-1 .8-1.3 16.1-9.3 23.1-12 4.4-1.7 15.5-5.2 18-5.7.3 0 2.1-.4 4-.8s4.5-.9 5.7-1.1c8.1-1.6 42.1-1.9 268.4-2 199.5-.1 252.9-.4 254.1-1.3.8-.7 1.7-1 2.1-.7 1.4 1.4 14.1-6.1 19.7-11.6 9.8-9.7 14.3-21.3 13.5-35-.2-4.1-.6-8.5-.9-9.8-.6-2.6-5.5-13-7.1-15-2.6-3.5-12.1-12.2-13.1-12.2-.6 0-1.7-.6-2.3-1.4-1-1.2-7.7-3.7-14.1-5.2-2-.5-503.8-1.2-504.3-.8zM872 473.4c3 .3 6.5.8 7.6 1 3.4.7 9.8 1.8 11.4 2 .9.1 2 .5 2.5.8.6.3 2.6.9 4.5 1.3s4 1 4.5 1.4c.6.4 2.8 1.3 5 2 6.3 2.1 19.8 8.7 25.1 12.2 13.8 9.1 29.6 23.7 35.9 33 1.6 2.4 3.3 4.6 3.7 4.9 1.4 1.1 6.8 9.5 6.8 10.7 0 .6.3 1.3.8 1.5.9.4 9 17.7 9.4 20.3.2 1.1.6 2.2 1 2.5.4.3.9 1.8 1.2 3.3.2 1.4.7 3 1 3.5.5.8.8 2.2 2.1 8.4.3 1.6.8 4 1.1 5.5.3 1.6.8 4.1 1.1 5.8.9 4.8 1.1 441.4.2 448-1.4 10.7-1.9 13.6-3.4 19.5-.2.8-.4 1.6-.5 1.7-.2.2-.3.6-.4 1-1.3 5.5-3.1 11.3-3.6 11.3-.4 0-.7.6-.7 1.3 0 4-11.6 25.1-19.4 35.3-5.9 7.8-17.6 19.4-25 25.1-7.1 5.4-19 13-19.6 12.5-.2-.1-1.1.4-1.9 1.3-.8.8-2.7 1.8-4.2 2.1-1.5.4-3.4 1.3-4.3 2-.8.7-2.4 1.5-3.5 1.7-1.9.4-4 1.1-8.3 2.8-5.6 2.3-23.2 5.9-31.1 6.4-3 .2-5.5.4-5.5.5 0 .1-107.2.2-238.3.3-158.2.1-238.2-.1-238.3-.8 0-.6-.3-.4-.6.3-.2.6-.8 1-1.2.7-.5-.2-3.9-.7-7.7-1-11.9-1-14-1.5-29.4-6.3-4.7-1.4-8.8-2.5-9.2-2.4-.5.1-.8-.2-.8-.8 0-.6-.3-.9-.7-.8-2.2.6-27.3-13.6-27.3-15.3 0-.5-.4-.8-.9-.7-1.8.6-26.1-21.9-26.1-24.2 0-.4-.3-1-.7-1.2-1.2-.5-8.7-10.8-11.7-16.1-7-12.3-13.6-28.4-15.1-36.8-.3-1.8-.8-3.6-1-3.9-.5-.8-.9-3.1-2.4-14-1.5-10.8-.6-454.5.9-454.5.2 0 .4-.9.5-2 .2-1.1.8-4 1.4-6.5.6-2.5 1.4-5.4 1.6-6.5 1-4.2 5.9-17 6.7-17.3.4-.2.8-.9.8-1.6 0-1.7 7-15 8.1-15.4.5-.2.9-.8.9-1.3 0-.6 2.6-4.5 5.7-8.7 6.4-8.7 18.1-20.7 26.3-27 3-2.3 6-4.6 6.7-5.2.7-.5 1.6-1 2.1-1s1.7-.9 2.7-2c1-1.1 2.6-2 3.6-2 .9 0 1.9-.4 2.1-.9.4-1.2 15.8-8.3 22.8-10.5 3-1 6.4-2.1 7.5-2.6 3.2-1.4 17.6-4.1 18.6-3.4.5.3.9.2.9-.3 0-.4 3.4-.9 7.6-1 4.2-.1 7.8-.4 8-.5.5-.6 477.2 0 482.4.6z"/></svg>