<svg width="100" height="100" fill="none" xmlns="http://www.w3.org/2000/svg"><path fill="#fff" d="M0 0h100v100H0z"/><path opacity=".1" d="M33 36a3 3 0 0 1 3-3h38a3 3 0 0 1 3 3v38a3 3 0 0 1-3 3H36a3 3 0 0 1-3-3V36z" fill="#2665C2" stroke="#2665C2" stroke-width="2"/><path d="M27 30a3 3 0 0 1 3-3h40a3 3 0 0 1 3 3v40a3 3 0 0 1-3 3H30a3 3 0 0 1-3-3V30z" stroke="#2665C2" stroke-width="2"/><path d="M38 38h24v24H38V38z" stroke="#2665C2" stroke-width="2"/><path d="M32 24h6v3h-6v-3zM33 14h4v4h-4v-4zM24 15h2v2h-2v-2zM48 14h4v4h-4v-4zM63 14h4v4h-4v-4zM33 82h4v4h-4v-4zM48 82h4v4h-4v-4zM63 82h4v4h-4v-4zM47 24h6v3h-6v-3zM62 24h6v3h-6v-3z" fill="#fff" stroke="#2665C2" stroke-width="2"/><path d="M32 73h6v3h-6v-3z" stroke="#2665C2" stroke-width="2"/><path d="M47 73h6v3h-6v-3z" fill="#fff" stroke="#2665C2" stroke-width="2"/><path d="M62 73h6v3h-6v-3zM76 32v6h-3v-6h3zM76 47v6h-3v-6h3zM76 62v6h-3v-6h3z" stroke="#2665C2" stroke-width="2"/><path d="M27 32v6h-3v-6h3zM27 47v6h-3v-6h3zM27 62v6h-3v-6h3z" fill="#fff" stroke="#2665C2" stroke-width="2"/><path d="M35 18v6M27 16h5" stroke="#2665C2" stroke-width="2"/><path d="M49 6h2v2h-2V6zM49 92h2v2h-2v-2z" fill="#fff" stroke="#2665C2" stroke-width="2"/><path d="M50 9v4M50 87v4" stroke="#2665C2" stroke-width="2"/><path d="M74 15h2v2h-2v-2z" fill="#fff" stroke="#2665C2" stroke-width="2"/><path d="M74 16h-7" stroke="#2665C2" stroke-width="2"/><path d="M24 83h2v2h-2v-2z" fill="#fff" stroke="#2665C2" stroke-width="2"/><path d="M27 84h5" stroke="#2665C2" stroke-width="2"/><path d="M74 83h2v2h-2v-2z" fill="#fff" stroke="#2665C2" stroke-width="2"/><path d="M74 84h-7M50 18v6M65 18v6M35 76v6M50 76v6M65 76v6" stroke="#2665C2" stroke-width="2"/><path d="M86 33v4h-4v-4h4zM85 24v2h-2v-2h2zM86 48v4h-4v-4h4zM86 63v4h-4v-4h4zM18 33v4h-4v-4h4zM18 48v4h-4v-4h4zM18 63v4h-4v-4h4z" fill="#fff" stroke="#2665C2" stroke-width="2"/><path d="M82 35h-6M84 27v5" stroke="#2665C2" stroke-width="2"/><path d="M94 49v2h-2v-2h2zM8 49v2H6v-2h2z" fill="#fff" stroke="#2665C2" stroke-width="2"/><path d="M91 50h-4M13 50H9" stroke="#2665C2" stroke-width="2"/><path d="M85 74v2h-2v-2h2z" fill="#fff" stroke="#2665C2" stroke-width="2"/><path d="M84 74v-7" stroke="#2665C2" stroke-width="2"/><path d="M17 24v2h-2v-2h2z" fill="#fff" stroke="#2665C2" stroke-width="2"/><path d="M16 27v5" stroke="#2665C2" stroke-width="2"/><path d="M17 74v2h-2v-2h2z" fill="#fff" stroke="#2665C2" stroke-width="2"/><path d="M16 74v-7M82 50h-6M82 65h-6M24 35h-6M24 50h-6M24 65h-6" stroke="#2665C2" stroke-width="2"/></svg>