<svg width="100" height="100" fill="none" xmlns="http://www.w3.org/2000/svg"><path fill="#fff" d="M0 0h100v100H0z"/><path d="M11 34a3 3 0 0 1 3-3h72a3 3 0 0 1 3 3v53a3 3 0 0 1-3 3H14a3 3 0 0 1-3-3V34z" fill="#fff" stroke="#2665C2" stroke-width="2"/><path opacity=".1" d="M17 41a3 3 0 0 1 3-3h71a3 3 0 0 1 3 3v46a3 3 0 0 1-3 3H20a3 3 0 0 1-3-3V41z" fill="#2665C2" stroke="#2665C2" stroke-width="2"/><path d="M11.625 34.685A3 3 0 0 1 14.545 31H85.03a3 3 0 0 1 2.931 3.641l-5.25 24A3 3 0 0 1 79.781 61H20.17a3 3 0 0 1-2.921-2.315l-5.625-24z" stroke="#2665C2" stroke-width="2"/><path d="M38 23a5 5 0 0 1 5-5h14a5 5 0 0 1 5 5v8H38v-8z" fill="#fff" stroke="#2665C2" stroke-width="2"/><path d="M42 23a1 1 0 0 1 1-1h14a1 1 0 0 1 1 1v8H42v-8z" stroke="#2665C2" stroke-width="2"/><rect x="47" y="58" width="6" height="6" rx="1" fill="#fff" stroke="#2665C2" stroke-width="2"/><path d="M36 29a1 1 0 0 1 1-1h7a1 1 0 0 1 1 1v2h-9v-2zM55 29a1 1 0 0 1 1-1h7a1 1 0 0 1 1 1v2h-9v-2z" fill="#fff" stroke="#2665C2" stroke-width="2"/></svg>