<svg width="100" height="100" fill="none" xmlns="http://www.w3.org/2000/svg"><path fill="#fff" d="M0 0h100v100H0z"/><mask id="a" fill="#fff"><path fill-rule="evenodd" clip-rule="evenodd" d="M58.074 43.542a2 2 0 0 1-1.563-2.271l3.587-22.593c.298-1.872-1.934-3.07-3.329-1.786L21.852 49.016c-1.195 1.1-.65 3.09.94 3.428l18.815 3.991a2 2 0 0 1 1.56 2.273l-4.263 26.639c-.299 1.869 1.926 3.07 3.324 1.793l38.891-35.51c1.204-1.099.658-3.098-.936-3.434l-22.109-4.654z"/></mask><path fill-rule="evenodd" clip-rule="evenodd" d="M58.074 43.542a2 2 0 0 1-1.563-2.271l3.587-22.593c.298-1.872-1.934-3.07-3.329-1.786L21.852 49.016c-1.195 1.1-.65 3.09.94 3.428l18.815 3.991a2 2 0 0 1 1.56 2.273l-4.263 26.639c-.299 1.869 1.926 3.07 3.324 1.793l38.891-35.51c1.204-1.099.658-3.098-.936-3.434l-22.109-4.654z" fill="#fff"/><path d="M81.12 51.63l1.348 1.477-1.349-1.477zM38.903 85.347l-1.974-.316 1.974.316zm3.324 1.793l1.349 1.477-1.349-1.477zm-.621-30.705l.415-1.956-.415 1.956zm1.56 2.273l-1.975-.316 1.975.316zM22.79 52.444l-.415 1.957.415-1.957zm33.72-11.173l1.975.314-1.975-.314zm1.563 2.27l-.412 1.958.412-1.957zm2.024-24.863l1.976.313-1.976-.313zm-3.329-1.786l1.354 1.472-1.354-1.472zm1.354 1.472l-3.587 22.593 3.95.628 3.588-22.594-3.95-.627zM23.206 50.488l34.917-32.124-2.708-2.944-34.917 32.124 2.708 2.944zm18.816 3.991l-18.816-3.991-.83 3.913 18.816 3.99.83-3.912zm-1.143 31.184l4.263-26.64-3.95-.631L36.93 85.03l3.95.632zm38.892-35.51l-38.892 35.51 2.698 2.954 38.89-35.51-2.696-2.954zM57.662 45.5l22.109 4.654.824-3.914-22.109-4.654-.824 3.914zm24.806 7.608c2.406-2.197 1.316-6.197-1.873-6.868l-.824 3.914 2.697 2.954zM36.93 85.031c-.599 3.738 3.85 6.138 6.647 3.586l-2.698-2.954a.146.146 0 0 1-.017.014h.002a.083.083 0 0 1 .025-.006c.008-.002.01-.001.008-.002a.067.067 0 0 1-.018-.006.068.068 0 0 1-.015-.011l.004.007a.082.082 0 0 1 .009.024v.002l.002-.022-3.95-.632zm4.262-26.64l3.95.633a4 4 0 0 0-3.12-4.545l-.83 3.913zM20.498 47.545c-2.391 2.2-1.3 6.182 1.878 6.857l.83-3.913-2.708-2.944zm34.038-6.587a4 4 0 0 0 3.126 4.542l.824-3.914-3.95-.628zm7.538-21.966c.594-3.744-3.869-6.138-6.66-3.57l2.71 2.943a.131.131 0 0 1 .017-.014c.002-.002.001 0-.002 0a.077.077 0 0 1-.025.007h-.008a.071.071 0 0 1 .032.018l-.004-.007a.078.078 0 0 1-.008-.025v-.002c0 .003 0 .01-.003.023l3.95.627z" fill="#2665C2" mask="url(#a)"/><path opacity=".1" d="M33.923 45.557l24.867-22.75c1.39-1.272 3.606-.093 3.328 1.77l-2.5 16.757a2 2 0 0 0 1.491 2.235l11.437 2.869c1.514.38 2.03 2.27.917 3.365l-23.26 22.91c-1.377 1.356-3.687.164-3.378-1.744l2.766-17.116a2 2 0 0 0-1.589-2.282l-13.114-2.575c-1.61-.317-2.176-2.33-.965-3.439z" fill="#2665C2" stroke="#2665C2"/></svg>