<svg width="100" height="100" fill="none" xmlns="http://www.w3.org/2000/svg"><path fill="#fff" d="M0 0h100v100H0z"/><path d="M30 20a3 3 0 0 1 3-3h34a3 3 0 0 1 3 3v70H30V20z" fill="#fff" stroke="#2665C2" stroke-width="2"/><path opacity=".1" d="M36 25a3 3 0 0 1 3-3h33a3 3 0 0 1 3 3v65H36V25z" fill="#2665C2" stroke="#2665C2" stroke-width="2"/><path d="M70 90V42.618l16.342 8.17A3 3 0 0 1 88 53.473V87a3 3 0 0 1-3 3H70z" stroke="#2665C2" stroke-width="2"/><path opacity=".1" d="M77 90V51.554l14.244 6.49A3 3 0 0 1 93 60.773V87a3 3 0 0 1-3 3H77zM34 90V59.494l-12.144 5.01A3 3 0 0 0 20 67.277V87a3 3 0 0 0 3 3h11z" fill="#2665C2" stroke="#2665C2" stroke-width="2"/><path d="M30 90V49.547L13.769 56.85A3 3 0 0 0 12 59.586V87a3 3 0 0 0 3 3h15z" stroke="#2665C2" stroke-width="2"/><rect x="35.5" y="24.5" width="6" height="1" rx=".5" fill="#DD435F" stroke="#2665C2"/><rect x="58.5" y="24.5" width="6" height="1" rx=".5" fill="#DD435F" stroke="#2665C2"/><rect x="35.5" y="30.5" width="6" height="1" rx=".5" fill="#DD435F" stroke="#2665C2"/><rect x="58.5" y="30.5" width="6" height="1" rx=".5" fill="#DD435F" stroke="#2665C2"/><rect x="35.5" y="36.5" width="6" height="1" rx=".5" fill="#DD435F" stroke="#2665C2"/><rect x="58.5" y="36.5" width="6" height="1" rx=".5" fill="#DD435F" stroke="#2665C2"/><rect x="46.5" y="24.5" width="7" height="1" rx=".5" fill="#DD435F" stroke="#2665C2"/><rect x="46.5" y="30.5" width="7" height="1" rx=".5" fill="#DD435F" stroke="#2665C2"/><rect x="46.5" y="36.5" width="7" height="1" rx=".5" fill="#DD435F" stroke="#2665C2"/><rect x="35.5" y="42.5" width="6" height="1" rx=".5" fill="#DD435F" stroke="#2665C2"/><rect x="58.5" y="42.5" width="6" height="1" rx=".5" fill="#DD435F" stroke="#2665C2"/><rect x="35.5" y="48.5" width="6" height="1" rx=".5" fill="#DD435F" stroke="#2665C2"/><rect x="58.5" y="48.5" width="6" height="1" rx=".5" fill="#DD435F" stroke="#2665C2"/><rect x="35.5" y="54.5" width="6" height="1" rx=".5" fill="#DD435F" stroke="#2665C2"/><rect x="58.5" y="54.5" width="6" height="1" rx=".5" fill="#DD435F" stroke="#2665C2"/><rect x="35.5" y="60.5" width="6" height="1" rx=".5" fill="#DD435F" stroke="#2665C2"/><rect x="58.5" y="60.5" width="6" height="1" rx=".5" fill="#DD435F" stroke="#2665C2"/><rect x="46.5" y="42.5" width="7" height="1" rx=".5" fill="#DD435F" stroke="#2665C2"/><rect x="46.5" y="48.5" width="7" height="1" rx=".5" fill="#DD435F" stroke="#2665C2"/><rect x="46.5" y="54.5" width="7" height="1" rx=".5" fill="#DD435F" stroke="#2665C2"/><rect x="46.5" y="60.5" width="7" height="1" rx=".5" fill="#DD435F" stroke="#2665C2"/><rect x="35.5" y="66.5" width="6" height="1" rx=".5" fill="#DD435F" stroke="#2665C2"/><rect x="58.5" y="66.5" width="6" height="1" rx=".5" fill="#DD435F" stroke="#2665C2"/><rect x="35.5" y="72.5" width="6" height="1" rx=".5" fill="#DD435F" stroke="#2665C2"/><rect x="58.5" y="72.5" width="6" height="1" rx=".5" fill="#DD435F" stroke="#2665C2"/><rect x="35.5" y="78.5" width="6" height="1" rx=".5" fill="#DD435F" stroke="#2665C2"/><rect x="58.5" y="78.5" width="6" height="1" rx=".5" fill="#DD435F" stroke="#2665C2"/><rect x="35.5" y="84.5" width="6" height="1" rx=".5" fill="#DD435F" stroke="#2665C2"/><rect x="58.5" y="84.5" width="6" height="1" rx=".5" fill="#DD435F" stroke="#2665C2"/><rect x="77.5" y="54.5" width="3" height="1" rx=".5" fill="#DD435F" stroke="#2665C2"/><rect x="77.5" y="60.5" width="3" height="1" rx=".5" fill="#DD435F" stroke="#2665C2"/><rect x="77.5" y="66.5" width="3" height="1" rx=".5" fill="#DD435F" stroke="#2665C2"/><rect x="77.5" y="72.5" width="3" height="1" rx=".5" fill="#DD435F" stroke="#2665C2"/><rect x="77.5" y="78.5" width="3" height="1" rx=".5" fill="#DD435F" stroke="#2665C2"/><rect x="77.5" y="84.5" width="3" height="1" rx=".5" fill="#DD435F" stroke="#2665C2"/><rect x="19.5" y="60.5" width="3" height="1" rx=".5" fill="#DD435F" stroke="#2665C2"/><rect x="19.5" y="66.5" width="3" height="1" rx=".5" fill="#DD435F" stroke="#2665C2"/><rect x="19.5" y="72.5" width="3" height="1" rx=".5" fill="#DD435F" stroke="#2665C2"/><rect x="19.5" y="78.5" width="3" height="1" rx=".5" fill="#DD435F" stroke="#2665C2"/><rect x="19.5" y="84.5" width="3" height="1" rx=".5" fill="#DD435F" stroke="#2665C2"/><rect x="46.5" y="66.5" width="7" height="1" rx=".5" fill="#DD435F" stroke="#2665C2"/><rect x="46.5" y="72.5" width="7" height="1" rx=".5" fill="#DD435F" stroke="#2665C2"/><rect x="46" y="79" width="8" height="11" rx="1" stroke="#2665C2" stroke-width="2"/></svg>