<svg width="191" height="177" viewBox="0 0 191 177" fill="none" xmlns="http://www.w3.org/2000/svg">
<path d="M185.112 77.0687V0H114.085V60.8437C114.085 93.7854 117.888 117.508 125.493 132.012C136.043 151.925 152.481 166.921 174.807 177L191 150.819C177.751 145.41 167.938 136.929 161.559 125.375C154.934 113.575 151.254 97.4729 150.518 77.0687H185.112ZM71.027 77.0687V0H-1.52588e-05V60.8437C-1.52588e-05 93.7854 3.80281 117.508 11.4085 132.012C21.9583 151.925 38.3963 166.921 60.7225 177L76.9152 150.819C63.6667 145.41 53.8529 136.929 47.474 125.375C40.8497 113.575 37.1696 97.4729 36.4335 77.0687H71.027Z" fill="#084FD8"/>
</svg>
