<svg width="135" height="25" fill="none" xmlns="http://www.w3.org/2000/svg"><path fill-rule="evenodd" clip-rule="evenodd" d="M90.91 19.95a.727.727 0 0 1-.728.727h-8.728a3.636 3.636 0 0 1-3.636-3.636V3.95A3.636 3.636 0 0 1 81.454.314h8.728a.727.727 0 0 1 0 1.454h-8.728a2.182 2.182 0 0 0-2.181 2.182v13.09c0 1.206.977 2.183 2.181 2.183h8.728c.401 0 .727.325.727.727z" fill="#DD435F"/><path fill-rule="evenodd" clip-rule="evenodd" d="M16.727 13.404a3.636 3.636 0 0 1 3.637-3.636h4.363a3.636 3.636 0 0 1 3.637 3.636v3.637a3.636 3.636 0 0 1-3.637 3.636h-4.363a3.62 3.62 0 0 1-2.182-.727v2.909a.727.727 0 1 1-1.455 0v-9.455zm1.455 3.637c0 1.205.977 2.182 2.182 2.182h4.363a2.182 2.182 0 0 0 2.182-2.182v-3.637a2.182 2.182 0 0 0-2.182-2.181h-4.363a2.182 2.182 0 0 0-2.182 2.181v3.637zM42.182 17.04a3.636 3.636 0 0 0-3.637-3.636h-4.363a3.636 3.636 0 0 0 0 7.273h4.363a3.636 3.636 0 0 0 3.637-3.636zm-3.637-2.181a2.182 2.182 0 1 1 0 4.364h-4.363a2.182 2.182 0 1 1 0-4.364h4.363zM0 17.04a3.636 3.636 0 0 0 3.636 3.637h7.273a3.636 3.636 0 0 0 3.636-3.636v-6.473a3.636 3.636 0 0 0-3.636-3.636H3.636a3.62 3.62 0 0 0-2.181.727V4.677c0-1.205.976-2.182 2.181-2.182h7.637a.727.727 0 1 0 0-1.454H3.636A3.636 3.636 0 0 0 0 4.677v12.364zm1.455-6.472c0-1.205.976-2.182 2.181-2.182h7.273c1.205 0 2.182.977 2.182 2.182v6.473a2.182 2.182 0 0 1-2.182 2.182H3.636a2.182 2.182 0 0 1-2.181-2.182v-6.473z" fill="#2665C2"/><path fill-rule="evenodd" clip-rule="evenodd" d="M104.727 13.404a3.636 3.636 0 0 0-3.636-3.636h-4.364a3.636 3.636 0 0 0-3.636 3.636v3.637a3.636 3.636 0 0 0 3.636 3.636h4.364a3.636 3.636 0 0 0 3.636-3.636v-3.637zm-3.636-2.181c1.205 0 2.182.976 2.182 2.181v3.637a2.182 2.182 0 0 1-2.182 2.182h-4.364a2.182 2.182 0 0 1-2.181-2.182v-3.637c0-1.205.976-2.181 2.181-2.181h4.364zM117.818 19.223A2.182 2.182 0 0 0 120 17.04v-3.637a2.182 2.182 0 0 0-2.182-2.181h-7.273a2.182 2.182 0 0 0-2.181 2.181v3.637c0 1.205.977 2.182 2.181 2.182h7.273zm3.637-2.182a3.637 3.637 0 0 1-3.637 3.636h-7.273a3.636 3.636 0 0 1-3.636-3.636v-3.637a3.636 3.636 0 0 1 3.636-3.636h7.273a3.636 3.636 0 0 1 3.637 3.636v3.637z" fill="#DD435F"/><path fill-rule="evenodd" clip-rule="evenodd" d="M64 9.768c.402 0 .727.326.727.727v9.455a.727.727 0 0 1-1.454 0v-9.455c0-.401.325-.727.727-.727zM32.727 10.495c0-.401.326-.727.728-.727h5.09a3.636 3.636 0 0 1 3.637 3.636v3.637a.727.727 0 0 1-1.455 0v-3.637a2.182 2.182 0 0 0-2.181-2.181h-5.091a.727.727 0 0 1-.728-.728z" fill="#2665C2"/><path fill-rule="evenodd" clip-rule="evenodd" d="M114.182 6.859c.402 0 .727.326.727.727v16a.727.727 0 1 1-1.454 0v-16c0-.401.325-.727.727-.727z" fill="#DD435F"/><path fill-rule="evenodd" clip-rule="evenodd" d="M69.818 10.495a.727.727 0 0 1-.727.728H58.909a.727.727 0 0 1 0-1.455h10.182c.402 0 .727.326.727.727z" fill="#2665C2"/><path fill-rule="evenodd" clip-rule="evenodd" d="M128.727 9.768c.402 0 .728.326.728.727v9.455a.728.728 0 0 1-1.455 0v-9.455c0-.401.326-.727.727-.727z" fill="#DD435F"/><path fill-rule="evenodd" clip-rule="evenodd" d="M134.545 10.495a.727.727 0 0 1-.727.728h-10.182a.727.727 0 0 1 0-1.455h10.182c.402 0 .727.326.727.727zM51.636 7.586a.727.727 0 0 1-.727.728h-1.697a.727.727 0 1 1 0-1.455h1.697c.402 0 .727.326.727.727z" fill="#DD435F"/><path fill-rule="evenodd" clip-rule="evenodd" d="M55.273 20.677a.727.727 0 0 1-.728-.727v-9.455a.727.727 0 0 1 1.455 0v9.455a.727.727 0 0 1-.727.727zM45.091 20.677a.727.727 0 0 1-.727-.727v-9.455a.727.727 0 0 1 1.454 0v9.455a.727.727 0 0 1-.727.727z" fill="#2665C2"/><path fill-rule="evenodd" clip-rule="evenodd" d="M55.768 11.028l-10.182 9.455-.99-1.066 10.182-9.455.99 1.066z" fill="#2665C2"/></svg>